<?xml version="1.0" encoding="UTF-8"?>
<svg id="Camada_1" data-name="Camada 1" xmlns="http://www.w3.org/2000/svg" xmlns:xlink="http://www.w3.org/1999/xlink" viewBox="0 0 869.5 670.85" height="670.849"
 width="869.503">
  <defs>
    <linearGradient id="Gradiente_sem_nome" data-name="Gradiente sem nome" x1="-521.69" y1="867.44" x2="-521.69" y2="866.44" gradientTransform="translate(151829.56 20909.52) scale(290.11 -23.84)" gradientUnits="userSpaceOnUse">
      <stop offset="0" stop-color="#f94f4f"/>
      <stop offset="1" stop-color="#f66363"/>
    </linearGradient>
    <linearGradient id="Gradiente_sem_nome_2" data-name="Gradiente sem nome 2" x1="-482.03" y1="869.57" x2="-482.03" y2="868.57" gradientTransform="translate(6390.11 27997.38) scale(12.64 -31.73)" gradientUnits="userSpaceOnUse">
      <stop offset="0" stop-color="#f94f4f"/>
      <stop offset="1" stop-color="#f66363"/>
    </linearGradient>
    <linearGradient id="Gradiente_sem_nome_3" data-name="Gradiente sem nome 3" x1="-482.03" y1="872.18" x2="-482.03" y2="871.18" gradientTransform="translate(6447.06 46976.13) scale(12.64 -53.42)" gradientUnits="userSpaceOnUse">
      <stop offset="0" stop-color="#f94f4f"/>
      <stop offset="1" stop-color="#f66363"/>
    </linearGradient>
    <linearGradient id="Gradiente_sem_nome_4" data-name="Gradiente sem nome 4" x1="-463.12" y1="852.49" x2="-463.12" y2="851.49" gradientTransform="translate(4431.58 7821.17) scale(8.68 -8.68)" gradientUnits="userSpaceOnUse">
      <stop offset="0" stop-color="#f94f4f"/>
      <stop offset="1" stop-color="#f66363"/>
    </linearGradient>
    <linearGradient id="Gradiente_sem_nome_5" data-name="Gradiente sem nome 5" x1="-463.12" y1="852.49" x2="-463.12" y2="851.49" gradientTransform="translate(4482.62 7821.17) scale(8.68 -8.68)" gradientUnits="userSpaceOnUse">
      <stop offset="0" stop-color="#f94f4f"/>
      <stop offset="1" stop-color="#f66363"/>
    </linearGradient>
    <linearGradient id="Gradiente_sem_nome_6" data-name="Gradiente sem nome 6" x1="-463.12" y1="852.49" x2="-463.12" y2="851.49" gradientTransform="translate(4528.58 7821.17) scale(8.68 -8.68)" gradientUnits="userSpaceOnUse">
      <stop offset="0" stop-color="#f94f4f"/>
      <stop offset="1" stop-color="#f66363"/>
    </linearGradient>
    <linearGradient id="Gradiente_sem_nome_7" data-name="Gradiente sem nome 7" x1="-521.69" y1="867.44" x2="-521.69" y2="866.44" gradientTransform="translate(151758.38 20944.17) scale(290.11 -23.84)" gradientUnits="userSpaceOnUse">
      <stop offset="0" stop-color="#f94f4f"/>
      <stop offset="1" stop-color="#f66363"/>
    </linearGradient>
    <linearGradient id="Gradiente_sem_nome_8" data-name="Gradiente sem nome 8" x1="-509.43" y1="872.97" x2="-509.43" y2="871.97" gradientTransform="translate(19761.17 59295.47) scale(37.25 -67.35)" gradientUnits="userSpaceOnUse">
      <stop offset="0" stop-color="#f94f4f"/>
      <stop offset="1" stop-color="#f66363"/>
    </linearGradient>
    <linearGradient id="Gradiente_sem_nome_9" data-name="Gradiente sem nome 9" x1="-509.32" y1="872.96" x2="-509.32" y2="871.96" gradientTransform="translate(19607.11 59033.55) scale(36.96 -67.05)" gradientUnits="userSpaceOnUse">
      <stop offset="0" stop-color="#f94f4f"/>
      <stop offset="1" stop-color="#f66363"/>
    </linearGradient>
    <linearGradient id="Gradiente_sem_nome_10" data-name="Gradiente sem nome 10" x1="-517.54" y1="873.8" x2="-517.54" y2="872.8" gradientTransform="translate(45807.84 81655.09) scale(87.94 -92.9)" gradientUnits="userSpaceOnUse">
      <stop offset="0" stop-color="#f94f4f"/>
      <stop offset="1" stop-color="#f66363"/>
    </linearGradient>
    <linearGradient id="Gradiente_sem_nome_11" data-name="Gradiente sem nome 11" x1="-464.52" y1="857.28" x2="-464.52" y2="856.28" gradientTransform="translate(4906.22 9660.58) scale(8.88 -10.9)" gradientUnits="userSpaceOnUse">
      <stop offset="0" stop-color="#f94f4f"/>
      <stop offset="1" stop-color="#f66363"/>
    </linearGradient>
    <linearGradient id="Gradiente_sem_nome_12" data-name="Gradiente sem nome 12" x1="-509.55" y1="870.24" x2="-509.55" y2="869.24" gradientTransform="translate(19927.16 31131.53) scale(37.55 -35.44)" gradientUnits="userSpaceOnUse">
      <stop offset="0" stop-color="#f94f4f"/>
      <stop offset="1" stop-color="#f66363"/>
    </linearGradient>
  </defs>
  <path d="M862.44,401.42c-15.04-41.95-38.73-54.71-61.27-81.61-27.52-32.86-46.08-56.74-38.94-99.01,11.68-69.06,16.68-241.3-166.16-218.79-65.53,8.07-117.32,58.29-154.99,108.41-32.05,42.65-89.72,46.42-136.13,56.36-57.03,12.22-115.12,30.68-167.88,57.72C28.41,280.2-4.04,360.27.39,462.71c1.34,30.95,5.72,79.7,58,136.74,70.57,76.99,173.11,87.3,296.52,51.94,28.25-8.09,54.95-20.79,82.74-30.34,28.91-9.94,58.88-16.44,89.3-19.39,70.88-6.85,144.36,5.54,212.36-15.62,36.13-11.3,68.8-31.56,94.98-58.9,32.48-34.02,44.03-81.45,28.15-125.72h0Z" style="fill: #f5f5fc;"/>
  <path d="M58.39,559.44c0,10.12,128.38,18.32,286.77,18.32s286.75-8.21,286.75-18.32-128.38-18.33-286.75-18.33-286.77,8.21-286.77,18.33h0Z" style="fill: #e5e5ff;"/>
  <path d="M233.38,582.06c0,6.33-32.59,11.47-72.8,11.47s-72.8-5.13-72.8-11.47,32.59-11.47,72.8-11.47,72.8,5.13,72.8,11.47Z" style="fill: #e5e5ff;"/>
  <ellipse cx="717.64" cy="584.45" rx="122.14" ry="9.07" style="fill: #e5e5ff;"/>
  <path d="M87.02,433.57l-4.69,65.69h62.66l-4.32-65.81-53.65.12Z" style="fill: #d7d7ff;"/>
  <path d="M99.45,439.34c.1-1.09,1.05-1.9,2.15-1.82,1-.17,1.95.51,2.12,1.51.17,1-.51,1.95-1.51,2.12-.2.03-.4.03-.61,0-1.09.08-2.05-.72-2.15-1.81ZM101.6,438.21c-.62-.16-1.26.21-1.42.83-.16.62.21,1.26.83,1.42.19.05.39.05.59,0,.62.16,1.26-.21,1.42-.83.16-.62-.21-1.26-.83-1.42-.19-.05-.39-.05-.59,0Z" style="fill: #eae6ff;"/>
  <path d="M120.81,439.29h.35-.35c0-.44.18-.87.5-1.18.44-.42,1.03-.65,1.64-.64h0c1.09-.08,2.05.72,2.15,1.81,0,.51-.24,1-.65,1.31-.42.34-.95.52-1.49.51-1.09.08-2.05-.72-2.15-1.81h0ZM122.96,438.17c-.43,0-.84.15-1.15.44-.19.18-.29.42-.3.68.11.7.75,1.2,1.46,1.12.38,0,.76-.12,1.06-.36.24-.18.39-.47.4-.77-.11-.7-.75-1.2-1.45-1.12h-.01Z" style="fill: #eae6ff;"/>
  <path d="M111.64,452.55c.2,0,.4,0,.61-.01,3.92-.13,6.92-1.4,8.9-3.76,3.27-3.91,2.53-9.36,2.5-9.59-.05-.38-.4-.64-.77-.59,0,0,0,0-.01,0-.38.06-.64.41-.59.78,0,.05.68,5.08-2.2,8.51-1.71,2.04-4.36,3.14-7.87,3.25-3.4.1-5.94-.79-7.62-2.66-3.06-3.4-2.31-9-2.3-9.06.04-.38-.23-.73-.61-.77-.37-.04-.7.21-.77.57-.04.26-.86,6.28,2.64,10.18,1.86,2.08,4.58,3.14,8.09,3.14h0Z" style="fill: #eae6ff;"/>
  <path d="M116.49,451.98l-7.49,48.84,68.03-.16-6.89-48.8-53.65.12Z" style="fill: #bdc6f9;"/>
  <path d="M91.3,534.44c-7.62,0-13.8,6.18-13.8,13.8s6.18,13.8,13.8,13.8,13.8-6.18,13.8-13.8h0c0-7.62-6.18-13.8-13.8-13.8ZM91.3,554.64c-3.54-.01-6.39-2.89-6.38-6.43s2.89-6.39,6.43-6.38c3.53.01,6.38,2.88,6.38,6.4,0,3.53-2.85,6.41-6.39,6.41-.01,0-.03,0-.04,0h0Z" style="fill: #8784ef;"/>
  <path d="M89.03,534.44c-7.62,0-13.8,6.18-13.8,13.8s6.18,13.8,13.8,13.8,13.8-6.18,13.8-13.8h0c0-7.62-6.18-13.8-13.8-13.8ZM89.03,554.64c-3.54-.01-6.39-2.89-6.38-6.43s2.89-6.39,6.43-6.38c3.53.01,6.38,2.88,6.38,6.4,0,3.53-2.85,6.41-6.39,6.41-.01,0-.03,0-.04,0h0Z" style="fill: #9aa3f4;"/>
  <path d="M169.25,534.44c-7.62,0-13.8,6.18-13.8,13.8s6.18,13.8,13.8,13.8,13.8-6.18,13.8-13.8h0c0-7.62-6.18-13.8-13.8-13.8ZM169.25,554.64c-3.54-.02-6.39-2.9-6.38-6.43.02-3.54,2.9-6.39,6.43-6.38,3.53.02,6.38,2.88,6.38,6.4,0,3.53-2.85,6.41-6.39,6.41-.02,0-.03,0-.05,0h0Z" style="fill: #8784ef;"/>
  <path d="M166.98,534.44c-7.62,0-13.8,6.18-13.8,13.8s6.18,13.8,13.8,13.8,13.8-6.18,13.8-13.8h0c0-7.62-6.18-13.8-13.8-13.8ZM166.98,554.64c-3.54-.02-6.39-2.9-6.38-6.43.02-3.54,2.9-6.39,6.43-6.38,3.53.02,6.38,2.88,6.38,6.4,0,3.53-2.85,6.41-6.39,6.41-.02,0-.03,0-.05,0h0Z" style="fill: #9aa3f4;"/>
  <g>
    <path d="M273.4,379.56h-41.46c-4.36,0-8.41,2.25-10.72,5.95l-25.06,40.24" style="fill: none; stroke: #9aa3f4; stroke-miterlimit: 10; stroke-width: 1.5px;"/>
    <path d="M84.76,499.7h92.65c4.93,0,9.14-3.58,9.92-8.45l9.59-59.8c.88-5.48-2.85-10.63-8.33-11.51-.53-.08-1.06-.13-1.59-.13h-111.82c-5.55,0-10.05,4.5-10.04,10.05,0,.53.04,1.06.13,1.59l9.59,59.8c.78,4.87,4.98,8.45,9.92,8.45Z" style="fill: none; stroke: #9aa3f4; stroke-miterlimit: 10; stroke-width: 1.5px;"/>
    <path d="M131.09,419.81v79.89" style="fill: none; stroke: #9aa3f4; stroke-miterlimit: 10; stroke-width: 1.5px;"/>
    <path d="M192.38,459.75h-122.58" style="fill: none; stroke: #9aa3f4; stroke-miterlimit: 10; stroke-width: 1.5px;"/>
    <path d="M167.68,419.81l-7.93,79.89" style="fill: none; stroke: #9aa3f4; stroke-miterlimit: 10; stroke-width: 1.5px;"/>
    <path d="M96.33,419.81l7.32,79.89" style="fill: none; stroke: #9aa3f4; stroke-miterlimit: 10; stroke-width: 1.5px;"/>
    <path d="M185.14,496.06l15.01,22.32c2.82,4.19,1.7,9.87-2.49,12.69-1.51,1.01-3.28,1.56-5.1,1.56h-122.77" style="fill: none; stroke: #9aa3f4; stroke-miterlimit: 10; stroke-width: 1.5px;"/>
  </g>
  <g>
    <path d="M380.68,506.66h127.09v34.19h-127.09v-34.19Z" style="fill: #4a74c8;"/>
    <rect x="224.61" y="200.87" width="440.57" height="316.96" rx="9.39" ry="9.39" style="fill: #5f8be3;"/>
    <rect x="236.91" y="212.42" width="414.62" height="274.99" rx="5.77" ry="5.77" style="fill: #fff1f1;"/>
    <path d="M333.37,537.88h221.7c4.04,0,7.32,3.28,7.32,7.32h0v14.23h-236.34v-14.23c0-4.04,3.28-7.32,7.32-7.32h0Z" style="fill: #5f8be3;"/>
    <rect x="335.93" y="231.42" width="290.11" height="195.01" rx="5.01" ry="5.01" style="fill: #fff; isolation: isolate; opacity: .35;"/>
    <g style="opacity: .25;">
      <path d="M363.5,373.86h12.64v31.73h-12.64v-31.73Z" style="fill: #fca70c;"/>
      <path d="M391.98,346.01h12.64v59.58h-12.64v-59.58Z" style="fill: #b1affd;"/>
      <path d="M420.45,352.17h12.64v53.42h-12.64v-53.42Z" style="fill: #fca70c;"/>
      <path d="M448.93,322.02h12.64v83.57h-12.64v-83.57Z" style="fill: #b1affd;"/>
      <path d="M391.98,346.01h5.8v59.58h-5.8v-59.58Z" style="isolation: isolate; opacity: .04;"/>
      <path d="M363.5,373.86h5.8v31.73h-5.8v-31.73Z" style="isolation: isolate; opacity: .04;"/>
      <path d="M448.93,322.02h5.8v83.57h-5.8v-83.57Z" style="isolation: isolate; opacity: .16;"/>
      <path d="M420.45,352.17h5.8v53.42h-5.8v-53.42Z" style="isolation: isolate; opacity: .04;"/>
      <path d="M468.25,414.32h-113.1v-120.43h1.73v118.7h111.38v1.73Z" style="fill: #d5dbda;"/>
      <path d="M366.77,359.01l-1.15-1.28,29.59-26.57,27.4,5.95,29.67-33.04,1.28,1.15-30.34,33.78-27.52-5.98-28.93,25.98Z" style="fill: #d5dbda;"/>
      <path d="M455.89,310.11l-8.37-8.02,10.8-2.89-2.43,10.91Z" style="fill: #d5dbda;"/>
      <path d="M478.96,371.61h8.68v8.68h-8.68v-8.68Z" style="fill: #b1affd;"/>
      <path d="M478.96,386.82h8.68v8.68h-8.68v-8.68Z" style="fill: #fca70c;"/>
      <path d="M490.03,390.57h27.51v4.93h-27.51v-4.93Z" style="fill: #efefef;"/>
      <path d="M490.03,375.36h27.51v4.93h-27.51v-4.93Z" style="fill: #efefef;"/>
      <path d="M530,371.61h8.68v8.68h-8.68v-8.68Z" style="fill: #b1affd;"/>
      <path d="M530,386.82h8.68v8.68h-8.68v-8.68Z" style="fill: #fca70c;"/>
      <path d="M541.07,390.57h27.51v4.93h-27.51v-4.93Z" style="fill: #efefef;"/>
      <path d="M541.07,375.36h27.51v4.93h-27.51v-4.93Z" style="fill: #efefef;"/>
      <path d="M575.96,371.61h8.68v8.68h-8.68v-8.68Z" style="fill: #b1affd;"/>
      <path d="M575.96,386.82h8.68v8.68h-8.68v-8.68Z" style="fill: #fca70c;"/>
      <g>
        <path d="M587.03,390.57h18.1v4.93h-18.1v-4.93Z" style="fill: #efefef;"/>
        <path d="M587.03,375.36h18.1v4.93h-18.1v-4.93Z" style="fill: #efefef;"/>
        <path d="M480.59,288.7h124.54v2.26h-124.54v-2.26Z" style="fill: #efefef;"/>
        <path d="M355.15,260.9h249.98v5.18h-249.98v-5.18Z" style="fill: #efefef;"/>
        <path d="M480.21,295.74h124.92v2.26h-124.92v-2.26Z" style="fill: #efefef;"/>
        <path d="M480.21,281.65h124.92v2.26h-124.92v-2.26Z" style="fill: #efefef;"/>
        <path d="M480.21,302.78h124.92v2.26h-124.92v-2.26Z" style="fill: #efefef;"/>
        <path d="M480.21,309.82h124.92v2.26h-124.92v-2.26Z" style="fill: #efefef;"/>
        <path d="M480.21,316.86h124.92v2.26h-124.92v-2.26Z" style="fill: #efefef;"/>
        <path d="M480.21,323.9h124.92v2.26h-124.92v-2.26Z" style="fill: #efefef;"/>
        <path d="M480.21,330.95h124.92v2.26h-124.92v-2.26Z" style="fill: #efefef;"/>
        <path d="M480.21,337.99h124.92v2.26h-124.92v-2.26Z" style="fill: #efefef;"/>
        <path d="M495.51,345.03h109.62v2.26h-109.62v-2.26Z" style="fill: #efefef;"/>
      </g>
      <path d="M613.32,231.42h-264.69c-7.02,0-12.71,5.69-12.71,12.71h0v11.13h290.11v-11.13c0-7.02-5.69-12.71-12.71-12.71Z" style="fill: url(#Gradiente_sem_nome);"/>
      <path d="M588.72,243.77c0,2.02-1.64,3.67-3.66,3.67s-3.67-1.64-3.67-3.66,1.64-3.67,3.66-3.67h0c2.02,0,3.66,1.64,3.66,3.66Z" style="fill: #cfcfff;"/>
      <circle cx="600" cy="243.77" r="3.67" style="fill: #cfcfff;"/>
      <circle cx="614.94" cy="243.77" r="3.67" style="fill: #cfcfff;"/>
    </g>
    <rect x="258.86" y="274.55" width="290.11" height="195.01" rx="5.01" ry="5.01" style="fill: #f75b5b; isolation: isolate; opacity: .55;"/>
    <rect x="264.75" y="266.96" width="290.11" height="195.01" rx="5.01" ry="5.01" style="fill: #fff;"/>
    <path d="M292.32,409.41h12.64v31.73h-12.64v-31.73Z" style="fill: url(#Gradiente_sem_nome_2);"/>
    <path d="M320.8,381.56h12.64v59.58h-12.64v-59.58Z" style="fill: #b1affd;"/>
    <path d="M349.27,387.72h12.64v53.42h-12.64v-53.42Z" style="fill: url(#Gradiente_sem_nome_3);"/>
    <path d="M377.75,357.56h12.64v83.57h-12.64v-83.57Z" style="fill: #b1affd;"/>
    <path d="M320.8,381.56h5.8v59.58h-5.8v-59.58Z" style="isolation: isolate; opacity: .04;"/>
    <path d="M292.32,409.41h5.8v31.73h-5.8v-31.73Z" style="isolation: isolate; opacity: .04;"/>
    <path d="M377.75,357.56h5.8v83.57h-5.8v-83.57Z" style="isolation: isolate; opacity: .16;"/>
    <path d="M349.27,387.72h5.8v53.42h-5.8v-53.42Z" style="fill: #241111; isolation: isolate; opacity: .04;"/>
    <path d="M397.07,449.87h-113.1v-109.67h1.73v107.95h111.38v1.73Z" style="fill: #d5dbda;"/>
    <path d="M295.59,394.55l-1.15-1.28,29.58-26.57,27.4,5.95,29.68-33.03,1.28,1.15-30.35,33.78-27.52-5.98-28.93,25.98Z" style="fill: #d5dbda;"/>
    <path d="M384.71,345.65l-8.37-8.02,10.8-2.89-2.43,10.91Z" style="fill: #d5dbda;"/>
    <path d="M407.78,407.16h8.68v8.68h-8.68v-8.68Z" style="fill: #b1affd;"/>
    <path d="M407.78,422.36h8.68v8.68h-8.68v-8.68Z" style="fill: url(#Gradiente_sem_nome_4);"/>
    <path d="M418.85,426.11h27.51v4.93h-27.51v-4.93Z" style="fill: #efefef;"/>
    <path d="M418.85,410.9h27.51v4.93h-27.51v-4.93Z" style="fill: #efefef;"/>
    <path d="M458.82,407.16h8.68v8.68h-8.68v-8.68Z" style="fill: #b1affd;"/>
    <path d="M458.82,422.36h8.68v8.68h-8.68v-8.68Z" style="fill: url(#Gradiente_sem_nome_5);"/>
    <path d="M469.89,426.11h27.51v4.93h-27.51v-4.93Z" style="fill: #efefef;"/>
    <path d="M469.89,410.9h27.51v4.93h-27.51v-4.93Z" style="fill: #efefef;"/>
    <path d="M504.78,407.16h8.68v8.68h-8.68v-8.68Z" style="fill: #b1affd;"/>
    <path d="M504.78,422.36h8.68v8.68h-8.68v-8.68Z" style="fill: url(#Gradiente_sem_nome_6);"/>
    <g>
      <path d="M515.85,426.11h18.1v4.93h-18.1v-4.93Z" style="fill: #efefef;"/>
      <path d="M515.85,410.9h18.1v4.93h-18.1v-4.93Z" style="fill: #efefef;"/>
      <path d="M409.41,324.24h124.54v2.26h-124.54v-2.26Z" style="fill: #efefef;"/>
      <path d="M283.97,296.45h249.98v5.18h-249.98v-5.18Z" style="fill: #efefef;"/>
      <path d="M409.03,331.28h124.92v2.26h-124.92v-2.26Z" style="fill: #efefef;"/>
      <path d="M409.03,317.2h124.92v2.26h-124.92v-2.26Z" style="fill: #efefef;"/>
      <path d="M409.03,338.32h124.92v2.26h-124.92v-2.26Z" style="fill: #efefef;"/>
      <path d="M409.03,345.36h124.92v2.26h-124.92v-2.26Z" style="fill: #efefef;"/>
      <path d="M409.03,352.4h124.92v2.26h-124.92v-2.26Z" style="fill: #efefef;"/>
      <path d="M409.03,359.45h124.92v2.26h-124.92v-2.26Z" style="fill: #efefef;"/>
      <path d="M409.03,366.49h124.92v2.26h-124.92v-2.26Z" style="fill: #efefef;"/>
      <path d="M409.03,373.53h124.92v2.26h-124.92v-2.26Z" style="fill: #efefef;"/>
      <path d="M424.33,380.57h109.63v2.26h-109.62v-2.26Z" style="fill: #efefef;"/>
    </g>
    <path d="M542.15,266.96h-264.69c-7.02,0-12.71,5.69-12.71,12.71h0v11.13h290.11v-11.12c0-7.02-5.69-12.71-12.71-12.71Z" style="fill: url(#Gradiente_sem_nome_7);"/>
    <path d="M517.55,279.31c0,2.02-1.64,3.67-3.66,3.67s-3.67-1.64-3.67-3.66,1.64-3.67,3.66-3.67c2.02,0,3.66,1.64,3.67,3.66Z" style="fill: #fff;"/>
    <path d="M532.49,279.31c0,2.02-1.64,3.67-3.66,3.67s-3.67-1.64-3.67-3.66c0-2.02,1.64-3.67,3.66-3.67h0c2.02,0,3.67,1.64,3.67,3.66Z" style="fill: #fff;"/>
    <path d="M547.42,279.31c0,2.02-1.64,3.67-3.66,3.67s-3.67-1.64-3.67-3.66,1.64-3.67,3.66-3.67h0c2.02,0,3.66,1.64,3.66,3.66Z" style="fill: #fff;"/>
    <path d="M640.06,201.08h-67.94c.47,22.03.84,44.06,1.12,66.1.04,3.37,0,6.85-1.23,9.96h-.1c-.9-.05-.5.23-.81,1.84,0,.02-.02.05-.02.07-2.75,4.49-8.11,6.94-13.33,8.09-.04.25-.01.5.08.73-.64.47-.86,1.33-.53,2.05.32.74,4.22,1.73,9.53,1.16,2.02-.3,4-.85,5.88-1.63.79-.39,1.52-.88,2.17-1.48.68-.07,1.35-.23,1.99-.48l.22.2,6.08-2.65s-.66-3.84-1.19-5.83c-.09-.33-.22-.65-.4-.94,5.09-13.8,9.08-27.97,11.93-42.4-1.11,17.9-7.54,54.25-8.01,55.5-1.4,3.07-4.36,5.15-7.73,5.42-1.44.12-8.52-.29-7.75,2.97.18.78,3.86,2.44,9.18,2.79,2.04.05,4.08-.15,6.08-.59,1.38-.44,2.67-1.14,3.79-2.06l.82,1.09,6.45-1.55s-.01-1.68-.05-3.7c-.12-1.41-.59-2.76-1.38-3.93l.09-3.67,3.57-.42s7.18-23.21,10.58-31.1c1.54-3.19,2.83-6.5,3.86-9.89,1.05-4.03,1.15-8.23,1.48-12.37.6-7.57,2-15.05,4.15-22.34.1-.47.31-.92.61-1.3.65-.56,1.49-.85,2.35-.82,9.13-.84,13.32.72,19.03-1.06,7.53-2.34,8.33-5.76,8.7-5.92-2.93-1.24-6.08-1.87-9.26-1.87h0Z" style="fill: #5851bc; isolation: isolate; opacity: .35;"/>
    <path d="M665.18,353.15v-78.79c-10.72,15.38-21.33,29.17-32.06,44.55-4.65,6.67-22.88,28.78-10.45,37.65,3.17,2.26,8.7,2.16,11.46,2.37,9.91.77,19.74-2.23,29.38-5.22.55-.17,1.11-.35,1.66-.55h0Z" style="fill: #385369; isolation: isolate; opacity: .35;"/>
    <path d="M665.17,370.1l-6.54.5-.12-.37-5.09.39-1.53-4.33c-1.06-2.58-3.63-4.22-6.42-4.07-1.94-.01-3.52,1.55-3.53,3.49,0,.47.09.94.27,1.38.27.75,1.01,2.85,1.52,4.29l-5.36.41.11.37-11.03.86c-1.74.01-4.32,2.26-3.76,3.83l.09.23c0,.14.02.27.05.41l9.54,26.93-.24,113.41h11.08l20.95-81.46v-66.26ZM647.96,369.26c-1.56.08-3.01-.84-3.6-2.29-.42-1,.05-2.15,1.05-2.57.25-.1.51-.16.78-.15,1.56-.08,3.01.84,3.6,2.28.42,1-.05,2.15-1.05,2.57-.24.1-.5.15-.77.15h0Z" style="fill: #5851bc; isolation: isolate; opacity: .35;"/>
    <path d="M252.3,323.37c-2.46,2.72-5.37,8.51-6.55,11-1.25,2.46-2.6,3.85-6.11,5.5-4.85,2.22-10.04,4.34-15.03,6.3v12.87c10.15-6.1,19.33-11.8,19.49-11.86,7.76,2.97,14.24-3.48,16.33-8.14.93-2.09-.47-2.94-.53-3.93-.04-.52.63-3.54.53-3.92-.61-2.72-7.9-.34-7.3-1.64.53-1.79,1.59-3.37,3.04-4.55,3.57-2.44,6.31-5.14,6.31-6.17,0-1.77-9.33,3.61-10.17,4.54h0Z" style="fill: #ffb9b0; isolation: isolate; opacity: .35;"/>
  </g>
  <g>
    <rect x="645.34" y="388.76" width="171.29" height="198.09" rx="6.95" ry="6.95" style="fill: #a2a7f4;"/>
    <g>
      <rect x="661.19" y="409.49" width="144.87" height="40.69" rx="1.77" ry="1.77" style="fill: #9090f4;"/>
      <rect x="661.19" y="464.61" width="37.25" height="25.83" rx="1.77" ry="1.77" style="fill: #9090f4;"/>
      <rect x="715" y="464.61" width="37.25" height="25.83" rx="1.77" ry="1.77" style="fill: #9090f4;"/>
      <rect x="768.8" y="464.61" width="37.25" height="25.83" rx="1.77" ry="1.77" style="fill: #9090f4;"/>
      <rect x="661.19" y="506.13" width="37.25" height="25.83" rx="1.77" ry="1.77" style="fill: #9090f4;"/>
      <rect x="715" y="506.13" width="37.25" height="25.83" rx="1.77" ry="1.77" style="fill: #9090f4;"/>
      <rect x="661.19" y="547.64" width="37.25" height="25.83" rx="1.77" ry="1.77" style="fill: #9090f4;"/>
      <rect x="715" y="547.64" width="37.25" height="25.83" rx="1.77" ry="1.77" style="fill: #9090f4;"/>
      <rect x="768.8" y="506.13" width="37.25" height="67.35" rx="1.77" ry="1.77" style="fill: #9090f4;"/>
    </g>
    <g style="opacity: .45;">
      <path d="M658.55,411.36c0-2.49,2.01-4.5,4.5-4.5h135.87c2.49,0,4.5,2.01,4.5,4.5v31.69c0,2.49-2.01,4.5-4.5,4.5h-135.87" style="fill: #e2deff;"/>
      <rect x="658.55" y="461.98" width="37.25" height="25.83" rx="1.77" ry="1.77" style="fill: #e2deff;"/>
      <rect x="712.36" y="461.98" width="37.25" height="25.83" rx="1.77" ry="1.77" style="fill: #e2deff;"/>
      <rect x="766.17" y="461.98" width="37.25" height="25.83" rx="1.77" ry="1.77" style="fill: #e2deff;"/>
      <rect x="658.55" y="503.49" width="37.25" height="25.83" rx="1.77" ry="1.77" style="fill: #e2deff;"/>
      <rect x="712.36" y="503.49" width="37.25" height="25.83" rx="1.77" ry="1.77" style="fill: #e2deff;"/>
      <rect x="658.55" y="545.01" width="37.25" height="25.83" rx="1.77" ry="1.77" style="fill: #e2deff;"/>
      <rect x="712.36" y="545.01" width="37.25" height="25.83" rx="1.77" ry="1.77" style="fill: #e2deff;"/>
    </g>
    <rect x="766.17" y="503.49" width="37.25" height="67.35" rx="1.77" ry="1.77" style="fill: url(#Gradiente_sem_nome_8);"/>
    <path d="M768.8,568.97v-58.35c0-2.49,2.01-4.5,4.5-4.5h28.25c.54,0,1.07.11,1.57.3-.65-1.76-2.33-2.93-4.2-2.93h-28.26c-2.49,0-4.5,2.01-4.5,4.5v58.35c0,1.87,1.17,3.55,2.93,4.2-.19-.5-.29-1.03-.3-1.57h0Z" style="fill: url(#Gradiente_sem_nome_9);"/>
    <path d="M645.34,435.47l4.59,12.08h19.2s-1.33,52.21-1.42,62,8.05,77.3,8.05,77.3h11.12l-1.16-85.12,15.77-43.67s11.86,58.47,16.78,68.25,31.34,60.55,31.34,60.55h10.2l-26.2-111.96-11.24-38.9-56.69-26.5-20.34,2" style="fill: #5851bc; isolation: isolate; opacity: .35;"/>
  </g>
  <path d="M261.81,478.85l-8.95,92.72,87.94.02-8.51-92.9-70.48.16Z" style="fill: url(#Gradiente_sem_nome_10);"/>
  <path d="M277.15,487.34c.15-1.68,1.61-2.92,3.29-2.8h0c1.54-.26,3,.77,3.26,2.31s-.77,3-2.31,3.26c-.31.05-.63.05-.94,0h0c-1.67.13-3.14-1.11-3.3-2.78h0ZM280.44,485.61c-.95-.25-1.93.33-2.17,1.28-.25.95.33,1.93,1.28,2.17.29.08.6.08.9,0h0c.95.25,1.93-.33,2.17-1.28.25-.95-.33-1.93-1.28-2.17-.29-.08-.6-.08-.9,0h0Z" style="fill: #5851bc;"/>
  <path d="M309.92,487.26h.53-.53c0-.68.28-1.33.77-1.81.67-.65,1.58-1,2.51-.99h.02c1.67-.13,3.14,1.11,3.29,2.78,0,.79-.38,1.53-1,2.01-.65.52-1.46.8-2.29.79h0c-1.67.12-3.14-1.11-3.3-2.78h0ZM313.21,485.53c-.65-.01-1.29.23-1.76.68-.29.27-.46.65-.46,1.05.16,1.08,1.15,1.84,2.23,1.72h0c.59,0,1.16-.18,1.62-.55.37-.28.6-.72.61-1.18-.16-1.08-1.15-1.84-2.23-1.72h0Z" style="fill: #5851bc;"/>
  <path d="M175.36,269.89c3.4,5.88.46,13.91,3.9,19.77,1.38,2.34,3.7,4.19,4.36,6.83.8,3.19-1.14,6.42-4.33,7.21-1.42.36-2.93.17-4.23-.51-.42-.26-.86-.48-1.32-.65-1.7-.5-3.23,1.01-4.69,2.01-1.78,1.3-4.06,1.7-6.18,1.1-2.64-.88-4.27-3.54-5.15-6.18-2.46-7.37-.71-15.45,1.56-22.88,1.13-3.71,2.81-7.84,6.45-9.18" style="fill: #24446e;"/>
  <path d="M254.4,332.42c.06.82,1.3,1.52.47,3.24-1.85,3.84-7.6,9.15-14.49,6.71-.3.11-38.04,21.92-40.95,21.92s-22.71-18.74-29.19-41.93c-1.55-5.53-.94-12.04,4.24-14.84,0,0,4.32,1.05,7.13,6.34,4.29,8.1,17.14,34.92,19.99,35.93,3.55-2.36,20.83-7.5,34.83-13.45,3.12-1.36,4.32-2.51,5.42-4.53,1.05-2.05,3.63-6.83,5.82-9.07.75-.77,9.03-5.2,9.03-3.74,0,.84-2.43,3.08-5.6,5.08-1.27.94-2.21,2.25-2.7,3.75-.54,1.07,5.93-.89,6.47,1.35.09.32-.5,2.81-.47,3.24Z" style="fill: #ffb9b0;"/>
  <path d="M172.97,306.83c4.86,1.12,8.98,4.32,11.27,8.74.58,1.15,1.09,2.32,1.54,3.52,2.01,5.11,4.77,9.74,6.79,14.86-2.75,2.22-6.07,3.24-8.88,4.28-2.64.98-5.46,1.36-8.26,1.11-.48-.02-.95-.13-1.39-.31-.56-.31-1.06-.73-1.45-1.24-.86-.99-1.7-1.99-2.51-3.02-.75-.84-1.33-1.82-1.69-2.89-.26-1.51-.12-3.06.4-4.5" style="fill: #3876c8;"/>
  <path d="M177.91,320.8c-.17-.23-.39-.42-.65-.55-.54-.15-1.1.1-1.36.6-.23.49-.33,1.04-.28,1.58.02,2.08.35,4.14.96,6.12l-.64,10.79.02.02c2.63.17,5.26-.22,7.73-1.13,1.17-.43,2.43-.88,3.69-1.4-1.3-6.07-5.44-11.22-9.47-16.03Z" style="fill: #7762ef; isolation: isolate; opacity: .35;"/>
  <path d="M161.18,296.12s-.14,6.75.89,7.2c1.41.57,2.87,1.03,4.36,1.35l.07,13.98-18.63-2.81-12.82-7.14s13.32-4.42,13.44-5.74-.73-8.8-.73-8.8" style="fill: #ffb9b0;"/>
  <path d="M132.56,498.35v.05c-5.11,24.17-2.68,57.38-3.82,75.57.27.07,6.93.91,6.93.91,0,0,15.77-76.7,18.63-91.38.19-.94.31-1.89.36-2.84.69-11.05-9.27-11.62-14.89-2.48-.97,1.58-1.83,3.23-2.57,4.93-.32.72-.61,1.45-.92,2.23v.02c-.97,2.52-1.8,5.1-2.48,7.72l-.06.28c-.23.77-.42,1.56-.61,2.35l-.04.18c-.2.81-.37,1.62-.55,2.47Z" style="fill: #ffb9b0;"/>
  <path d="M162.41,411.6c-.19,2-1.25,11.52-2.54,22.74-1.09,9.44-2.29,20.08-3.23,28.5-.69,6.32-1.2,11.36-1.41,13.73-.1,1.37-.28,2.73-.56,4.08v.05c-2.4,11.04-10.02,11.68-14.66,9.12-.63-.33-1.22-.73-1.76-1.2-1-.84-1.69-1.98-1.97-3.25v-.02c-.29-2.27-.59-5.36-.85-9.04v-.05s-.02-.02-.02-.05l-.03-.08c-.56-7.17-1.04-16.4-1.47-25.38-.5-11.04-.83-21.68-.91-27.68-.03-.35-.03-.67-.05-.99-.08-18.4,16.83-30.18,27.33-24.48.13.05.25.11.37.18.13.09.26.17.4.24,1.2.8,1.6,3.55,1.63,6.69.05,2.3-.11,4.8-.27,6.88h0Z" style="fill: #ffb9b0;"/>
  <path d="M136.68,481.02l-1.29-4.82s0,.02.01.06c.09,5.65-.45,11.29-1.6,16.83l-.06.28c-.18.76-.38,1.57-.61,2.35l-.04.18c-.26.8-.44,1.63-.55,2.47v.05c-.03,2.18,4.63-7.52,5.69-9.79.13-.29.21-.45.21-.45l-1.26-5.05-.52-2.1Z" style="fill: #ffb9b0;"/>
  <path d="M173.1,502.97v.05c-.48,25.31,7.33,55.07,9.4,73.45.25,0,6.38-.82,6.38-.82,0,0,1.17-77.53,1.25-92.85,0-.98-.04-1.95-.15-2.92-1.26-11.16-10.31-9.25-13.81,1.23-.61,1.82-1.1,3.67-1.47,5.54-.16.8-.3,1.6-.44,2.45v.03c-.43,2.61-.73,5.38-.91,8.29v.29c-.08.83-.12,1.65-.16,2.48v.19c-.05.85-.06,1.71-.08,2.59h0Z" style="fill: #ffb9b0;"/>
  <path d="M178.36,492.65c-.63-.17-1.23-.43-1.78-.78-1.08-.6-1.91-1.57-2.33-2.74v-.03c-.67-2.18-1.46-5.22-2.33-8.82t-.02-.06l-.04-.09c-1.71-6.98-3.73-16.04-5.62-24.85-2.32-10.85-4.43-21.36-5.51-27.32-.09-.32-1.02-4.67-1.08-4.99-3.24-18.49,11.18-30.53,21.66-27.01.15.05.28.1.41.14,2.11.85,2.69,8.26,3.17,13.27s4.03,56.92,4.92,66.3c.14,1.4.2,2.8.18,4.21-.25,11.6-7.01,14.15-11.63,12.76h0Z" style="fill: #ffb9b0;"/>
  <path d="M173.87,484.7l-1.98-4.47s0,.03.02.06c1.04,5.65,1.52,11.39,1.42,17.13v.29c-.04.8-.08,1.66-.16,2.48v.19c-.1.86-.13,1.73-.08,2.59v.05c.36,2.18,2.9-8.63,3.47-11.15.07-.32.11-.5.11-.5l-1.99-4.71-.82-1.96Z" style="fill: #ffb9b0;"/>
  <path d="M141.74,376.09s-13.57,17.24-12.17,34.56c.58,7.21,1.47,13.56,2.29,20.82.12,1.05,1.75,16.28,1.29,16.29,0,0,27.96,8.64,54.97-2.68,0-1.85,2.16-37.3-12.43-71.1-11.25,1.52-22.6,2.23-33.95,2.11h0Z" style="fill: #3876c8;"/>
  <path d="M184.24,336.29c-.11,4.94-2.73,7.94-6.5,12.11-.48.74-1.65,11.75-2.05,19.07-.21,3.81,1.42,6.2,0,6.51-5.42,4.73-24.97,8.56-33.94,2.11.94-7.96-2.63-25.5-5.03-34.41-.38-1.37-.7-2.53-1-3.42-2.24-6.77-6.29-28.49-3.29-29.43.6-.19,1.52-.43,2.6-.76,4.69-1.41,11.61-3.84,11.61-3.84,0,0,4.06,12.02,14.62,13.47,5.77-2.38,5.26-9.66,5.19-13.02,1.89.52,2.71,1.04,8.56,2.77,1.64,2.36.22,7.29,2.87,14.64.65,1.83,6.48,8.2,6.36,14.22h0Z" style="fill: #3876c8;"/>
  <path d="M174.67,268.53s1.07,13.05-1.16,19.9c-1.65,5.07-8.42,9.8-14.08,9.73-15.59,0-18.39-21.17-18.3-22.2s22.99-9.91,22.99-9.91l10.55,2.48Z" style="fill: #ffb9b0;"/>
  <path d="M204.35,583.8c-5.55,1-11.48-.56-13.91-.14-2.01.34-7.17,1.65-9.1-.08s-1.62-7.86.6-8.68c.47.16.95.28,1.44.35,2.2.3,4.45.12,6.57-.54,4.22,1.74,4.38,2.5,9.18,3.47,2.1.41,4.15,1.03,6.11,1.86,2.07.95,2.23,3.21-.89,3.77Z" style="fill: #5045af;"/>
  <path d="M144.45,586.24c-5.56-.94-9.08-4.01-11.51-4.43-2.01-.36-7.06-1.34-7.59-3.42-.39-1.54,1.13-7.95,3.5-7.96.39.31.8.58,1.24.82,1.97,1.03,4.14,1.61,6.36,1.71,3.39,3.06,3.28,3.83,7.47,6.36,1.84,1.09,3.55,2.37,5.13,3.81,1.63,1.59-1.46,3.64-4.59,3.11h0Z" style="fill: #5045af;"/>
  <path d="M63.43,326.97l5.11-6.07,31.15,27.85s15.21-20.24,19.39-26.56c4.6-6.95,8.75-12.9,15.47-14.06,1.55.96-.52,25.92-1.33,26.52-9.4,7.03-27.68,29.71-33.5,30.89-6.72,1.36-36.28-38.57-36.28-38.57Z" style="fill: #ffb9b0;"/>
  <path d="M136.85,307.03s-6.36.08-9.1,2.33-15.81,22.98-15.81,22.98c0,2.8,1.26,5.45,3.44,7.2,2.71,2.19,5.96,3.6,9.42,4.08,0,0,6.56-6.53,10.26-9.5,2.3-1.85,2.53,2.73,2.53,2.73l11.57-11.3-12.31-18.52Z" style="fill: #3876c8;"/>
  <path d="M133.01,307.28c-.35-.18-.69-.39-1.02-.58-1.79-1.07-3.43-2.19-4.18-4.22-1.08-2.93-1.6-7.41-.09-10.25,1.03-1.92,2.96-3.18,4.28-4.91,1.83-2.39,2.37-5.52,2.52-8.52s-.02-6.05.61-8.99c1.08-5.03,2.51-9.82,6.39-13.06,6.21-5.19,18.65-8.27,25.42-2.48,1.23,1.05,1.47,1.9,3.13,2.06,2,.08,3.95.65,5.68,1.66,2.22,1.28,4.92,3.09,4.6,6.01-.22,2.02-2.51,5.21-4.23,6.16-.74.37-1.56.55-2.39.54-2.64.05-4.83-1.66-7.42-1.39-1.28.15-2.44.8-3.25,1.8-.93,1.15-.81,2.76-1.9,3.83-1.75,1.73-4.46,1.58-6.53,2.7-.36.16-.67.42-.89.74-.16.35-.24.73-.23,1.11l-.12,3.27c-1.03-.45-1.13-1.91-1.98-2.65-.91-.65-2.15-.57-2.97.19-.78.77-1.28,1.77-1.43,2.85-.13,1.33.07,2.67.58,3.9.68,2.22,2.58,4.23,4.12,2.76,1.12,1.64-.1,4.38-.14,6.24-.03,1.47,0,4.39,1.37,5.36,1.27.89,3.27.22,3.35,2.51.07,2.1-2.03,3.73-4.11,3.99s-4.14-.48-6.15-1.07-4.21-1.06-6.17-.3c-1.18.46-2.21,1.35-3.46,1.56-1.18.11-2.37-.16-3.38-.79h0Z" style="fill: #24446e;"/>
  <path d="M76.41,327.98s-7.32-5.87-7.82-7.48-.61-3.33-1.21-4.9c-.94-2.3-2.77-4.13-5.08-5.05-1.83-.76-.94-1.38-2.9-1-2.97.57-4.37,3.48-5.56,5.75-5.06,9.69,8.79,11.52,9.28,11.55,1.01.04,6.16,5.88,6.16,5.88" style="fill: #ffb9b0;"/>
  <path d="M53.28,323.3l5.01,3.35c.64.42,1.49.25,1.92-.39.01-.02.02-.04.04-.06l11.02-18.46-6.52-3.68-11.82,17.3c-.43.63-.27,1.49.35,1.92,0,0,0,0,.01,0h0Z" style="fill: #f0890a;"/>
  <path d="M35.37,284.13l1.73,1.18,6.98-10.17-1.73-1.18c-2.45-1.68-6.01-.75-7.93,2.05-1.93,2.81-1.5,6.44.96,8.12Z" style="fill: #f0890a;"/>
  <path d="M28.99,296.53l32.1,4.87,7.33-10.68-16.2-28.04-23.23,33.85Z" style="fill: #fca70c;"/>
  <path d="M31.04,296.97l30.05,4.43,2.92-4.26-25.29-11.36-7.68,11.19Z" style="fill: #f0890a;"/>
  <path d="M74.29,309.17c1.93,1.12,4.4.48,5.55-1.44l1.3-1.9c1.38-1.75,1.08-4.29-.67-5.67-1.93-1.12-4.4-.48-5.55,1.44l-1.3,1.9c-1.38,1.75-1.08,4.29.67,5.67Z" style="fill: #fca70c;"/>
  <path d="M74.92,301.6l-1.3,1.9c-1.42,1.55-1.31,3.95.23,5.37,1.55,1.42,3.95,1.31,5.37-.23.25-.27.45-.57.61-.9l1.3-1.9c.1-.14.19-.29.27-.45-1.16,1.7-3.48,2.14-5.18.98-1.7-1.16-2.14-3.48-.98-5.18-.11.13-.22.27-.32.41h0Z" style="fill: #fca70c;"/>
  <path d="M27.94,297.58c1.13.66,2.58.28,3.26-.84l22.02-32.08c.81-1.03.63-2.52-.39-3.33-1.13-.65-2.58-.28-3.26.85l-22.02,32.08c-.81,1.03-.63,2.52.39,3.33h0Z" style="fill: #f0890a;"/>
  <path d="M53.39,261.93l-18.34,26.72c-.67,1.12-2.12,1.5-3.26.85-.23-.16-.42-.37-.56-.61l-3.68,5.36c-.83.91-.75,2.32.16,3.15.91.83,2.32.75,3.15-.16.14-.15.25-.32.34-.5l22.02-32.09c.58-.8.65-1.86.17-2.72h0Z" style="fill: #fca70c;"/>
  <path d="M63.92,307.02l2.08,1.42c3.07,2.09,7.5.94,9.91-2.57l2.07-3.01c2.4-3.51,1.87-8.04-1.2-10.13l-2.08-1.42c-3.07-2.09-7.5-.94-9.91,2.57l-2.07,3.01c-2.4,3.51-1.86,8.04,1.2,10.13Z" style="fill: #fca70c;"/>
  <path d="M62.84,296.72l-3.09,4.5c-.78.99-.61,2.43.38,3.21l9.67,6.59c1.09.63,2.49.27,3.14-.81l3.09-4.5c-.65,1.08-2.04,1.44-3.14.81l-9.67-6.58c-.99-.78-1.16-2.22-.38-3.21Z" style="fill: #f0890a;"/>
  <path d="M54.36,318.67c-.44-2.65.2-5.36,1.76-7.54.55-.69,1.15-1.34,1.8-1.94.29-.33.67-.58,1.08-.72.82-.11,1.65.07,2.35.53.83.41,1.51,1.08,1.92,1.91.54,1.31-.38,2.41-1.41,3.06-.11.05-.21.14-.26.26-.06.17.06.4.18.6.5.74.76,1.61.74,2.5-.09.81-.81,1.39-1.61,1.3-.04,0-.07,0-.11-.02-.38-.06-.88-.21-1.01.08-.03.11-.03.22,0,.33.12.76-.1,1.52-.58,2.11-.11.15-.28.26-.46.29-.17.01-.33-.01-.49-.07-.6-.17-1.18-.43-1.71-.76" style="fill: #ffb9b0;"/>
  <path d="M68.54,320.9c-.27-1.3-.47-2.62-.6-3.94-.08-3.01-1.68-5.78-4.23-7.36-.2-.14-.44-.21-.69-.2-.31.08-.53.34-.56.66-.02.31.02.62.14.91.3.93,1.62,2.68,1.21,3.64-.68,1.43-1.03,2.99-1.05,4.57.05,1.39.7,3.65,2.34,3.88" style="fill: #ffb9b0;"/>
  <path d="M31.32,247.15l6.46,15.23" style="fill: none; stroke: #f0890a; stroke-linecap: round; stroke-linejoin: round; stroke-width: .75px;"/>
  <path d="M17.83,260.69l13.23,9.92" style="fill: none; stroke: #f0890a; stroke-linecap: round; stroke-linejoin: round; stroke-width: .75px;"/>
  <path d="M9.3,279.13l16.46,1.62" style="fill: none; stroke: #f0890a; stroke-linecap: round; stroke-linejoin: round; stroke-width: .75px;"/>
  <path d="M536.62,118.91s-5.91-4.17-6.12-5.92-4.33-8.85-5.65-10.26-8.25-3.81-9.73-4.03-9.96.51-8.91,1.67,6.55.74,7.6,1.37l1.05.63s-1.05,1.43-.63,2.3-1.81,2.2-.97,3.68-.34,1.38.41,2.92c1.25,2.54,4.44,3.96,5.29,3.27.63,1.51,3.06,4.58,5.33,4.37s7.79,4.96,7.79,4.96" style="fill: #ffb9b0;"/>
  <path d="M626.76,89.23c.2,3.97-.08,10.88,1.05,11.91s4.81.87,4.81.87c0,0-13.12,16.59-14.29,15.68s-16.69-13.55-13.2-14.21,6.9-.51,6.8-2.32-.2-3.61-.3-5.41" style="fill: #ffb9b0;"/>
  <path d="M641.72,177.81s-25.59,2.9-31.49,3.03-5.6-2.96-5.6-2.96c-.3-6.49-1.4-21.77-2.62-26.95-1.14-4.84-1.64-6.62-2.63-11.22-2.2-10.21-2.11-12.16-4.44-24.77l15.29-12.29s1.58,4.7,7.99,4.78c8.57.11,11.23-5.89,11.23-5.89l20.85,13.84,1.96,33.68-2.49,27.73" style="fill: #fca70c;"/>
  <path d="M627.05,85.63c-.46,2-1.07,3.97-1.8,5.88-1.35,3.51-3.34,4.77-7.06,4.86l-7.84.18c-2,.05-4.5.12-6.12-1.29s-1.64-3.74-2-5.68c-.45-2.47-.82-4.96-1.11-7.46-.56-4.89-.79-9.82-.69-14.74,0-.68.05-1.35.17-2.02.04-.27.16-.53.34-.74.27-.22.6-.34.94-.36,4.9-.77,9.86-1.09,14.82-.95,3.5.1,7.21.51,9.97,2.65,2.79,2.15,4.11,5.66,5.3,8.97.19.53.33,1.24-.13,1.57" style="fill: #ffb9b0;"/>
  <path d="M569.64,269.11c.36,2.31.87,4.59,1.52,6.83.68,1.74,6.39.13,6.77-.99s-1.8-9.4-1.8-9.4" style="fill: #ed9c80;"/>
  <path d="M579.92,276.39c.49,1.88,1.12,5.48,1.12,5.48l-5.71,2.48-.94-.88c-.88,1.04-1.96,1.9-3.17,2.52-1.77.73-3.63,1.25-5.52,1.53-4.98.54-8.65-.4-8.95-1.09-1.24-2.89,5.38-3.66,6.69-4.01,3.07-.8,5.47-3.2,6.26-6.27.29-1.51-.08-1.78.76-1.73.55.02,1.06.26,1.43.67,1.01,1.14,2.64,1.52,4.05.94.83-.34,1.54-.93,2.02-1.68,1.01.21,1.78,1.02,1.95,2.04h0Z" style="fill: #38287c;"/>
  <path d="M594.87,202.57c-9.62,1.7-19.45,1.93-29.14.69,1.26,3.62,4.35,8.25,5.53,13.34,3.89,16.8,5.24,39.38,6.22,53.35,0,0-1.86,3.58-7.85.86-8.94-22.07-24.54-66.8-24.4-76.51.18-12.35,31.02-15.34,53.62-18.38" style="fill: #453087;"/>
  <path d="M634.26,177.84c7.11,5.19-39.39,24.74-39.39,24.74-5.02.99-10.12,1.47-15.24,1.45-.51-.9-.89-1.87-1.13-2.88-.27-1.35-.13-2.76-.36-4.11-.59-2.65-2.28-4.93-4.65-6.26-2.35-1.3-4.93-2.14-7.6-2.46-6.29-1.01-17.26-.3-17.26-.3,13.98-10.3,42.57-11.65,55.89-12.5,2.55,4.2,28.73,1.58,29.75,2.33h0Z" style="fill: #38287c;"/>
  <path d="M584.38,280.86c-.04,2.34.07,4.67.32,6.99.36,1.83,6.27,1.24,6.83.2s-.14-9.57-.14-9.57" style="fill: #ed9c80;"/>
  <path d="M593.24,289.81c.16,1.94.15,5.59.15,5.59l-6.05,1.46-.77-1.03c-1.05.87-2.26,1.53-3.55,1.94-1.87.41-3.79.6-5.71.55-5-.33-8.45-1.89-8.62-2.62-.72-3.06,5.93-2.67,7.28-2.79,3.16-.26,5.94-2.21,7.25-5.1.55-1.44.23-1.77,1.05-1.57.54.11,1,.44,1.29.91.8,1.3,2.34,1.95,3.83,1.63.88-.19,1.68-.64,2.28-1.31.95.38,1.57,1.31,1.56,2.34Z" style="fill: #38287c;"/>
  <path d="M649.77,176.81c-10.47.91-20.99,1.24-31.5,1-4.02,0-34.45,5.71-37.36,10.87-4.79,8.48,3.12,58.05,2.39,93.54,0,0,3.65,3.05,10.1.18,1.6-17.43,11.91-58.56,4.8-77.76,16.78,2.23,30.31,4.44,45.56-.62,3.57-1.18,6.24-3.7,7.84-8.32,1.61-4.63.77-14.76-1.83-18.9h0Z" style="fill: #453087;"/>
  <path d="M610.23,102.66s-3.66.2-4.37.26c-3.08.15-6.12.73-9.04,1.71-4.15,1.54-7.07,5.39-10.45,8.41-3.25,2.9-20.09,18.95-23.23,19.54s-30.72-18.31-30.72-18.31l-6.73,6.73s29.92,27.65,38.85,27.7c4.33.02,28.22-12.55,35.86-17.44l9.83-28.61Z" style="fill: #fca70c;"/>
  <path d="M564.61,143.4c-6.15.35-34.34-21.18-37.61-23.69l-1.31,1.31s29.92,27.65,38.85,27.7c3.61.02,20.79-8.71,30.84-14.45l2.6-1.51-1.56-9.3s-25.28,19.58-31.81,19.94Z" style="fill: #ce4a30; isolation: isolate; opacity: .25;"/>
  <path d="M535.9,182.34h68.5l-12.28-40.04c-.68-2.21-2.72-3.72-5.03-3.72h-59.99c-1.88,0-3.41,1.53-3.41,3.41,0,.34.05.68.15,1l12.07,39.34Z" style="fill: #747e88;"/>
  <path d="M535.04,182.34h67.47l-12.28-40.04c-.68-2.21-2.72-3.72-5.03-3.72h-59.98c-1.89,0-3.41,1.53-3.41,3.42,0,.34.05.68.15,1l11.77,38.36c.18.59.72.99,1.33.99Z" style="fill: #38424d;"/>
  <path d="M640.36,121.96c-3.41,15.41-4.01,27.48-4.98,38.5-11.97,4.65-16.84,11.56-28.55,16.77,0,0-9.25-1.54-10.22,1.95-.56,2.01,10.83,3.61,10.83,3.61,10.85.05,39.48-7.88,41.42-8.41s7.58-36.92,7.8-56.67c.03-2.8-.07-5.85-1.82-8.04-.98-1.11-2.18-2-3.53-2.61-7.64-3.9-13.3-4.97-21.86-5.51" style="fill: #ce4a30; isolation: isolate; opacity: .25;"/>
  <path d="M608.45,179.62c-1.29-1.62-3.63-1.85-5.7-1.8-1.53.04-3.06.16-4.58.37-.69.09-1.49.26-1.56,1s3.35,0,5.15.52c-3.52.3-7.06.4-10.59.29-.41-.04-.83,0-1.22.12-.4.14-.67.51-.68.93.05.32.23.61.48.81,1.05.82,2.32,1.33,3.64,1.47,5.4.95,11.08.78,16.1-1.42" style="fill: #ffb9b0;"/>
  <path d="M639.62,121.67c-.28,16.48-1.45,24.02-1.13,40.5-8.27,1.77-19.72,11.13-31.43,16.35-.39,1.43-.25,2.95.39,4.29.89.33,39.51-9.07,42.58-11.9,2.76-2.55,6.42-33.43,6.65-53.18.03-2.8-.07-5.85-1.82-8.04-.98-1.11-2.18-2-3.53-2.61-7.64-3.9-13.3-4.97-21.86-5.51" style="fill: #fca70c;"/>
  <path d="M569.86,161.15c.24,3.51-3.9,6.36-9.27,6.36s-9.91-2.84-10.16-6.36,3.9-6.36,9.27-6.36,9.91,2.84,10.16,6.36Z" style="fill: none; isolation: isolate; opacity: .45; stroke: #fff; stroke-miterlimit: 10;"/>
  <ellipse cx="560.14" cy="161.15" rx="3.53" ry="6.17" transform="translate(377.26 714.58) rotate(-87.76)" style="fill: #fff; stroke: #fff; stroke-miterlimit: 4; stroke-width: 1px;"/>
  <path d="M614.98,75.1c-.13-.62-1.5-.74-2.87-.57s-5.04.63-5.79,1.22-.71,1.01-1.11,1.05-.42-.37-1.3-.75-2.99-.11-4.36.06-2.68.48-2.65,1.11c0,.67.19,1.33.55,1.9.28.18.28.15,1.36,2.63.39,1.4,1.83,2.21,3.23,1.82.03,0,.05-.02.08-.02,2.26-.49,2.4-3.07,2.58-4.14s.34-1.24.68-1.28.58.07,1.02,1.07.75,3.3,3.07,3.43c3.03.17,4.35-.87,4.77-2.81.57-2.64.44-2.65.67-2.88.76,0,1.52.07,2.27.19l-.05-.79c-.74-.36-1.45-.77-2.12-1.24h0ZM603.97,80.4c.08,1.36-.89,2.56-2.23,2.77-1.39.18-2.03-.56-2.78-2.34-.53-.98-.69-2.12-.45-3.21.24-.43.99-.41,2.71-.52s2.3-.15,2.58.61c.19.89.25,1.79.17,2.7h0ZM613.85,78.95c-.29,1.91-.99,2.83-2.89,3.06-2.7.32-3.22-.74-3.62-2.03-.29-.86-.46-1.75-.5-2.66.08-.8.65-.91,2.35-1.23s3.97-.72,4.31-.36c.51,1,.63,2.14.36,3.22h0Z" style="fill: #483a99;"/>
  <path d="M633.29,70.89c-.16-1.37-.41-2.73-.76-4.06-.85-3.53-3.15-6.54-6.33-8.29-4.44-2.21-9.53-2.72-14.32-1.43-2.62.73-3.59,2.11-4.94,2.08-1.27-.24-2.5-.65-3.67-1.21-10.24-3.68-8.53,6.35-7.43,9.1.48,1.22,2.81,2.11,3.12,2.61s.27,2.99.47,4.08c.16.68.63,1.24,1.28,1.51,0,0,.06-3.23.11-3.66.04-1.18.59-2.28,1.52-3.02,1.14-.59,2.4-.95,3.68-1.04,2.56.07,5.09.49,7.54,1.25,1.91,1.64,2.41,5.39,2.94,7.59.25,1.03.51,1.72.93,1.7.32-3.03,1.37-3.11,3.18-2.07.97.55,1.51,2.47,1.54,4.1.04,1.93-1.04,4.05-3.06,4.48-.72.15,1.46,4.29,2.47,5.32.31.36.67.67,1.07.94.39.21.8.36,1.23.46l1.46.4c.64.24,1.34.3,2.01.17,1.08-.3,1.65-1.45,2.14-2.46.8-1.66,1.72-3.27,2.38-4.99,1.52-4.34,2.01-8.97,1.43-13.53h0Z" style="fill: #483a99;"/>
  <path d="M817.87,222.7h-129.65l15.53-11.49v-56.07c0-4.68,3.79-8.47,8.47-8.47h105.65c4.68,0,8.47,3.79,8.47,8.47v59.09c0,4.68-3.79,8.47-8.47,8.47Z" style="fill: #5f8be3;"/>
  <path d="M755.82,157.6h59.25v5.67h-59.25v-5.67Z" style="fill: #fff; isolation: isolate; opacity: .45;"/>
  <path d="M755.82,166.07h59.25v5.67h-59.25v-5.67Z" style="fill: #fff; isolation: isolate; opacity: .45;"/>
  <path d="M755.82,174.54h59.25v5.67h-59.25v-5.67Z" style="fill: #fff; isolation: isolate; opacity: .45;"/>
  <path d="M755.82,182.79h59.25v5.67h-59.25v-5.67Z" style="fill: #fff; isolation: isolate; opacity: .45;"/>
  <path d="M755.82,192.66h41.32v5.67h-41.32v-5.67Z" style="fill: #fff; isolation: isolate; opacity: .45;"/>
  <rect x="713.95" y="157.6" width="37.22" height="43.52" rx="3.39" ry="3.39" style="fill: #b9b9f8;"/>
  <path d="M713.95,206.54h37.22v4.67h-37.22v-4.67Z" style="fill: #a2a7f4; isolation: isolate; opacity: .45;"/>
  <path d="M736.23,185.84h-13.51c-.76,0-1.43-.51-1.63-1.24l-2.6-9.6c-.24-.9.29-1.82,1.19-2.07.14-.04.29-.06.44-.06h18.7c.93,0,1.68.75,1.69,1.68,0,.15-.02.3-.06.45l-2.6,9.6c-.2.73-.86,1.24-1.62,1.24Z" style="fill: #fff;"/>
  <path d="M738.61,188h-16.27c-.19,0-.34-.15-.34-.34,0-.18.15-.33.34-.34h16.01l5.66-19.74c.04-.14.17-.24.32-.24h3.54c.19,0,.34.15.34.34,0,.18-.15.33-.34.34h-3.29l-5.66,19.74c-.04.15-.17.25-.33.24Z" style="fill: #fff;"/>
  <path d="M724.83,190.64c0,1.09-.88,1.97-1.97,1.97-1.09,0-1.97-.88-1.97-1.97,0-1.09.88-1.97,1.97-1.97h0c1.09,0,1.97.88,1.97,1.97Z" style="fill: #fff;"/>
  <circle cx="737.17" cy="190.64" r="1.97" style="fill: #fff;"/>
  <path d="M336.22,144.38h165.19l-19.78-14.63V39.37c0-5.96-4.83-10.79-10.79-10.79h-134.61c-5.96,0-10.79,4.83-10.79,10.79h0v94.22c0,5.96,4.83,10.79,10.79,10.79h0Z" style="fill: #fdcdcd;"/>
  <g style="opacity: .45;">
    <path d="M415.27,52.56h-75.49v-7.22h75.49v7.22Z" style="fill: #fff;"/>
    <path d="M415.27,63.35h-75.49v-7.22h75.49v7.22Z" style="fill: #fff;"/>
    <path d="M415.27,74.14h-75.49v-7.22h75.49v7.22Z" style="fill: #fff;"/>
    <path d="M415.27,84.66h-75.49v-7.22h75.49v7.22Z" style="fill: #fff;"/>
    <path d="M415.27,95.17h-75.49v-7.22h75.49v7.22Z" style="fill: #fff;"/>
    <path d="M415.27,114.28h-75.49v-7.22h75.49v7.22Z" style="fill: #fff;"/>
    <path d="M468.62,125.66h-128.84v-7.22h128.84v7.22Z" style="fill: #fff;"/>
  </g>
  <rect x="421.2" y="45.34" width="47.42" height="55.45" rx="4.31" ry="4.31" style="fill: #f75c5c;"/>
  <path d="M468.62,113.64h-47.42v-5.95h47.42v5.95Z" style="fill: #fff; isolation: isolate; opacity: .45;"/>
  <ellipse cx="718.27" cy="612.44" rx="72.8" ry="7.67" style="fill: #f5f5fc;"/>
  <path d="M679.21,601.55c-.61,1.19-3.54,3.94-7.6,5.75s-12.65,2.66-7.87,4.26,10.34.63,13.16.18c2.94-.41,5.91-.59,8.88-.54,4.39-.03,4.42-.3,3.83-5.24-.81-6.8-8.42-8.25-10.4-4.4h0Z" style="fill: #38424d;"/>
  <path d="M758.68,599.08c-.24,1.37,1.71,5.53-1.78,8.59s-11.41,6.27-6.16,6.39c4.44.15,8.87-.68,12.96-2.41,2.67-1.32.54-3.39,3.85-4.44,4.36-1.38,3.46-4.58,1.2-6.57-2.91-6.54-9.28-6-10.07-1.56Z" style="fill: #38424d;"/>
  <path d="M741.96,460.51s10.45-30.74-19.2-56.05c0,0-15.89,6.33-28.62,7.09-10.03.6-15.11-.32-15.11-.32,0,0-.84,27.3-.88,42.02l63.81,7.26Z" style="fill: #303d47;"/>
  <path d="M675.74,511.56c-.57-13.74,14.33-11.94,19.82-1.67,11.36,21.23-4.19,70.12-6.25,93.28-2.14.83-5.72,1.47-7.87.49-1.01-.58-1.81-1.46-2.29-2.53.33-28.42-2.81-74.88-3.42-89.57Z" style="fill: #303d47;"/>
  <path d="M695.05,513.64c-1.72,5.61-20.73,11.51-19.19-8.91.68-9.06,2.5-59.08,2.85-63.9s1.16-11.87,3.49-12.75c11.65-4.4,32.27,10.84,29.2,28.95-2.04,12.1-12.8,44.98-16.35,56.61h0Z" style="fill: #303d47;"/>
  <path d="M724.98,521.44c-4.6-12.96,10.34-15.25,18.81-7.27,19.84,18.7,20.61,62.76,25.47,85.51-2.62,1.58-5.62,2.43-8.67,2.48-.93-.03-1.8-.47-2.36-1.21-8.06-27.25-28.33-65.65-33.25-79.51Z" style="fill: #303d47;"/>
  <path d="M744.6,517.21c.52,5.84-15.34,17.92-21.58-1.59-2.77-8.65-14.62-59.78-16.1-64.38s-1.08-14.1.75-15.79c9.15-8.45,29.8-1.02,33.76,16.91,2.65,11.99,2.09,52.73,3.16,64.85h0Z" style="fill: #303d47;"/>
  <path d="M662.95,293.36c.54-.57,1.08-1.14,1.56-1.76,3.76-4.81,4.31-9.07,7.79-14.64.74-1.67,1.59-3.28,2.53-4.84,1.59-1.87,3.5-3.44,5.65-4.63,1.63-.85.23,2.73.23,2.73,0,0,1.38-2,2.72-1.86.52.06.61,3.11.62,3.64.06,4.22-.92,8.39-2.85,12.14-.54.83-.87,1.77-.97,2.76,1.23-.19,2.37-.76,3.28-1.61,1-.73,2.26-1.4,3.43-1-.18.5-.4.98-.66,1.43-1.48,2.79-3.15,5.75-6,7.11-1.71.81-3.68.95-5.34,1.84-3.01,1.6-4.47,5.3-7.52,6.81" style="fill: #f2a181;"/>
  <rect x="668.97" y="275.04" width="23.92" height="12.99" rx=".65" ry=".65" transform="translate(158.47 801.13) rotate(-67.31)" style="fill: #5e5dbb;"/>
  <path d="M680.35,269.72l10.05,4.2-8.24,19.69-10.05-4.2,8.24-19.69Z" style="fill: #b4b4db;"/>
  <path d="M690.4,312.8c-4.91.31-9.77,1.13-14.51,2.45-10.33,3.1-13.88,7.88-17.45,9.86,6.93-8.8,14.66-27.48,14.66-27.48,0,0-9.32-7.65-10.39-5.84s-40.17,47.57-38.95,54.98c.5,3.05,5.03,6.07,9.03,5.94,11.09-.38,23.96-4.42,37.46-8.83,5.93-1.94,7.76,2.24,7.76,2.24" style="fill: #385369;"/>
  <path d="M673.89,277.02c.43.41.68.97.7,1.56.34,2.2.66,4.53-.19,6.58-.61,1.31-1.52,2.46-2.65,3.37-1.23,1.07-2.58,2-4.03,2.76" style="fill: #f2a181;"/>
  <path d="M690.64,260.5c-2.61.75-3.99,4.13-4.88,6.43-1.01,2.8-1.66,5.72-1.95,8.68-.39,2.04-.25,4.14.42,6.11.46.95,1.03,1.84,1.71,2.66.34.49.75.93,1.23,1.29.49.36,1.12.47,1.7.29.81-.31,1.14-1.27,1.37-2.11,1.5-5.48,3.15-11.03,6.25-15.8" style="fill: #170d54;"/>
  <path d="M687.74,277.87c-.05-1.75-1.89-2.88-3.48-1.08-1.32,1.49-1.67,4.34-1.74,6.43-.09,2.51,1.86,3.01,3.46,3.36" style="fill: #f2a181;"/>
  <path d="M670.29,321.81c3.22-3.7,13.46-9.79,27.13-9.36,9.42.3,35.08,1.85,37.95,8.16,1.47,3.22,3.04,36.22.89,47.59-1.61,8.56-5.74,29.75-5.74,34.86s2.75,7.31,1.47,8.79c-2.87,3.33-22.51,4.72-31.72,4.72-8.2,0-22.17-2.19-22.88-4.82-1.05-3.9,1.6-3.76,1.96-7.85s1.39-30.64-.11-34.98c-2.72-7.85-4.04-20.64-6.19-26.44-1.64-4.4-5.97-16.98-2.75-20.68h0Z" style="fill: #385369;"/>
  <path d="M729.05,348.51c.98,2.04,7.62,12.71,7.62,12.71l.27,1.28c-.12,1.91-.35,3.81-.67,5.7-1.61,8.56-5.74,29.75-5.74,34.86s2.63,7.21,1.47,8.79c-2.26,3.07-39.29,9.97-37.46,1.4.16-.77,31.07-24.36,31.24-25.15,1.42-6.77,2.67-11.64,3.29-16.58,1.5-11.87-.98-25.05,0-23.02Z" style="fill: #31475a;"/>
  <path d="M689.97,300.65s-.09,10.73-.52,11.17c-.81.55-1.66,1.03-2.55,1.44,0,0,1.51,9.33,3.85,8.63s17.77-8.49,17.77-8.49c0,0-2.19-.89-2.19-1.76s2.08-17.75,2.08-17.75" style="fill: #ffbe9d;"/>
  <path d="M700.69,261.66c-2.25.61-8.18-.61-9.81,1.84s-3.07,8.38-3.68,10.02c-1.22,3.26-2.02,6.74-2.9,10.09-1.16,4.37-3.06,12.39,1.22,16.05.88.91,2.04,1.5,3.3,1.68,2.03.36,4.04.78,6.07,1.14,3.14.56,6.62,1.22,9.74.21,4.17-1.35,6.45-7.08,7.52-10.97l6.13-22.29-17.58-7.77Z" style="fill: #ffbe9d;"/>
  <path d="M689.59,326.07s-.9,41.88-2.61,67.36l6.16,8.49,4.23-10.64c.85-21.72-.49-43.47-4-64.92l-3.79-.29Z" style="fill: #e8e8e8;"/>
  <path d="M688.17,322.39l.15.58c.27,1.09.7,2.13,1.27,3.1l3.78.29s2.57-1.35,2.91-2.79-4.22-3.82-4.22-3.82l-.55.22c-1.28.5-2.41,1.32-3.29,2.37l-.05.06Z" style="fill: #e8e8e8;"/>
  <path d="M706.6,309.03c1.71,1.16,3.17,2.64,4.31,4.37-1.94,4.45-6.34,12.34-11.17,15.94-1.59-3.86-4.25-7.19-7.67-9.59,0,0,13.18-2.35,14.53-10.72Z" style="fill: #38424d;"/>
  <path d="M692.06,319.75c-3.22,1.49-5.86,4-7.52,7.14,0,0-.91-7.14,1.02-13.26,0,0,3.1-3.96,4.17-4.04-.44,5.04,2.33,10.16,2.33,10.16h0Z" style="fill: #38424d;"/>
  <path d="M692.66,413.26c-4.68.7-6.41,2.45-9.05,5.05-.25.18-.39.47-.39.78.06.37.5.54.87.6,2.17.35,2.53-1.04,4.56-1.89,1.37-.57,2.73-1.17,4.1-1.76" style="fill: #f2a181;"/>
  <path d="M676.76,379.14l16.59,53.17c.42.96-.01,2.08-.97,2.51-.25.11-.52.16-.79.16l-34.61,3.03c-1.34-.07-2.5-.96-2.9-2.23l-17.84-52.36c-.45-1.43,1.61-3.47,3-3.48l34.62-3.03c1.34.06,2.5.95,2.9,2.23h0Z" style="fill: #e9e6ff;"/>
  <path d="M675.62,380.53l16.36,52.35c.43.96,0,2.08-.96,2.51-.25.11-.52.17-.8.16l-34.61,3.03c-1.34-.07-2.5-.96-2.9-2.24l-16.36-52.35c-.42-.96,0-2.08.97-2.51.25-.11.52-.17.79-.16l34.61-3.04c1.34.07,2.5.96,2.9,2.23h0Z" style="fill: #e0d9ff;"/>
  <path d="M647.97,378.83l1.23,4.59,16.19-1.43-1.33-4.57-16.09,1.41Z" style="fill: #fff;"/>
  <path d="M651.04,374.57c.34,1.07,1.62,5.19,1.62,5.19l7.73-.71-1.62-5.19c-.7-2.24-2.79-3.74-5.13-3.69-2.13.2-3.3,2.17-2.6,4.41ZM652.75,374.46c-.39-.9.02-1.94.92-2.34.17-.07.35-.12.54-.14,1.31-.03,2.49.82,2.88,2.07.39.9-.02,1.94-.92,2.33-.17.07-.35.12-.54.14-1.31.03-2.49-.82-2.88-2.07h0Z" style="fill: #fff;"/>
  <path d="M705.84,409.54c-3.63.76-13.31,3.64-14.33,4.12-2.19,1.33-4.25,2.86-6.17,4.56-3.64,3.65-1.78,5.36-3.22,10.31-.07.26-.1.52-.09.78,0,.52.7.96,1.4.48.38.64,1.5.24,2.05-.45-.01.49.68.81,1.8.19.6-.33.49-.3,1.89-1.54,1.18-1,2.51-1.81,3.94-2.4,1.32-.49,2.61-1.08,3.84-1.76,1.47-.97,4.09-1.2,5.38-5.39.42-.89,1.13-1.6,2.02-2.02l5.92-3.71" style="fill: #ffbe9d;"/>
  <path d="M728.16,341.44c1.54,5.49,7.94,43.54,7.94,43.54l-36.08,26.13,3,7.89s43.17-14.49,46.57-24.4,3.24-54.66-8.75-70.36c-3.82-5-11.46-7.52-11.46-7.52" style="fill: #385369;"/>
  <path d="M691.15,423.24c-.88.59-1.73,1.24-2.52,1.94-1.03,1.09-1.8,2.29-2.91,3.59" style="fill: none; stroke: #f2a181; stroke-miterlimit: 10; stroke-width: .25px;"/>
  <path d="M689.17,420.85c-1.2,1.01-2.21,2.23-2.97,3.61-.71,1.56-1.5,3.09-2.37,4.57" style="fill: none; stroke: #f2a181; stroke-miterlimit: 10; stroke-width: .25px;"/>
  <path d="M686.89,418.92c-.35.56-1.84,1.96-2.13,2.54-.95,1.86-1.64,3.83-2.05,5.87" style="fill: none; stroke: #f2a181; stroke-miterlimit: 10; stroke-width: .25px;"/>
  <path d="M714.44,287.86c-1.41-.83-2.5-1.7-3.42-.35-.49.72-.78,1.71-1.62,1.96-.89.14-1.73-.46-1.89-1.34-.13-.86-.02-1.74.31-2.55.57-1.83,1.14-3.65,1.7-5.48.56-1.79,1.11-3.76.4-5.49-.39-.87-.99-1.63-1.73-2.22-2.46-1.89-5.35-3.13-8.42-3.6-3.05-.46-6.07-1.09-9.06-1.86-1.25-.34-2.43-.93-3.45-1.74-1.57-1.43-2.46-3.46-2.45-5.58.04-2.11.65-4.16,1.77-5.95.22.72.52,1.41.9,2.06.37-.97.93-1.85,1.65-2.59.88,4.91,21.55,3.27,26.38,5.43,3.35,1.5,6.12,2.48,6.02,7.91.13.34.36.64.65.86,2.97,2.73,4.25,6.04,4.62,10.96.46,6.02-3.05,12.54-6.49,17.51-.66,1.16-1.53,2.2-2.55,3.05-1.41.95-3.12,1.34-4.8,1.09-1.49-.28-4.43-.16-4.46-1.67-.02-1.09,2.3-3.02,2.94-3.9" style="fill: #3b2e7a;"/>
  <path d="M709.03,293.55c-.31,1,.26,2.06,1.26,2.37.53.16,1.11.08,1.57-.22,2.18-.83,3.75-2.76,4.12-5.06.49-2.61-.91-5.21-3.3-4.53-1.41.54-2.31,1.92-2.25,3.43" style="fill: #ffbe9d;"/>
  <path d="M689.98,301.56l6.63,1.22c-1.82,1.7-4.24,2.59-6.72,2.48" style="fill: #f2a181;"/>
  <g style="opacity: .3;">
    <path d="M169.37,187.88l8.88,4.47-4.44-10.9" style="fill: #3939d3;"/>
    <path d="M141.8,173.94c0,9.79,8.41,17.72,18.78,17.72s18.78-7.93,18.78-17.72-8.41-17.72-18.78-17.72-18.78,7.93-18.78,17.72h0Z" style="fill: #3939d3;"/>
    <path d="M155.98,168.12v12.67c0,.73.59,1.33,1.33,1.33.23,0,.46-.06.67-.18l10.97-6.33c.64-.37.85-1.18.49-1.81-.12-.2-.29-.37-.49-.49l-10.97-6.33c-.64-.37-1.45-.15-1.81.49-.12.2-.18.43-.18.66Z" style="fill: #fefefe;"/>
  </g>
  <g style="opacity: .3;">
    <path d="M783.9,322.61l-8.88,4.47,4.44-10.9" style="fill: url(#Gradiente_sem_nome_11);"/>
    <path d="M811.47,308.68c0,9.79-8.41,17.72-18.78,17.72s-18.78-7.93-18.78-17.72,8.41-17.72,18.78-17.72,18.78,7.93,18.78,17.72Z" style="fill: url(#Gradiente_sem_nome_12);"/>
    <g>
      <path d="M789.33,317.16c4.09.07,8.24.12,12-.13,1.19-.08,2.22-1.86.77-2.43.63-.2,1.17-.64,1.49-1.22.26-.6-.02-1.3-.62-1.56-.03-.01-.07-.03-.1-.04,1.42.33,1.98-1.79.87-2.48.6-.44,1.03-1.08,1.2-1.81.14-.74-.21-1.5-.86-1.87-.47-.19-.97-.28-1.47-.24-1.7-.01-3.4-.02-5.1-.04.46-2.51.6-5.25-.75-7.46-.41-.66-1.5-1.46-2.37-.95-.82.48-.59,1.67-.55,2.42.09,3.27-1.73,6.29-4.65,7.75,0,0,.19,6.66.15,10.05h0Z" style="fill: #fefefe;"/>
      <path d="M781.66,307.11h6.19v10.05h-6.19v-10.05Z" style="fill: #fefefe;"/>
    </g>
  </g>
  <g style="opacity: .3;">
    <path d="M499.73,168.83l6.48-7-8.88,1.74" style="fill: #0898e7;"/>
    <path d="M475.71,170.46c0,7.1,6.1,12.85,13.62,12.85s13.61-5.75,13.61-12.85-6.1-12.85-13.61-12.85-13.62,5.75-13.62,12.85h0Z" style="fill: #0898e7;"/>
    <g>
      <path d="M486.72,176.62c2.68.05,5.39.09,7.86-.09.78-.06,1.45-1.35.51-1.76.43-.16.78-.48.98-.88.19-.45-.02-.97-.47-1.16.93.24,1.3-1.3.57-1.8.4-.33.68-.8.78-1.31.1-.53-.12-1.06-.57-1.36-.3-.14-.64-.2-.97-.17l-3.34-.03c.44-1.81.27-3.71-.49-5.41-.27-.48-.98-1.06-1.55-.69-.53.35-.39,1.21-.36,1.76.1,2.29-1.07,4.45-3.04,5.62,0,0,.13,4.83.1,7.29h0Z" style="fill: #fefefe;"/>
      <path d="M481.7,169.32h4.05v7.29h-4.05v-7.29Z" style="fill: #fefefe;"/>
    </g>
  </g>
  <g style="opacity: .3;">
    <path d="M563.12,74.91c6.89-8.66,5.45-21.27-3.21-28.16s-21.27-5.45-28.16,3.21c-6.89,8.66-5.45,21.27,3.21,28.16,6.82,5.42,16.35,5.82,23.59.99l7.78,4.15-3.21-8.35Z" style="fill: #f94f4f;"/>
    <path d="M538.95,56.9c1.93-1.9,5.03-1.87,6.93.06,0,0,0,0,0,0l1.25,1.28,1.29-1.27c1.93-1.9,5.04-1.88,6.94.05s1.88,5.04-.05,6.94h0l-4.77,4.7-.03.03c-1.94,1.89-5.04,1.86-6.94-.07l-4.69-4.79c-1.9-1.93-1.86-5.04.07-6.94,0,0,0,0,0,0Z" style="fill: #fff;"/>
  </g>
  <g>
    <path d="M444.91,53.79c5.33,0,10.15,2.15,13.63,5.64,3.49,3.49,5.64,8.31,5.64,13.63s-2.15,10.14-5.64,13.63c-3.48,3.49-8.3,5.64-13.63,5.64s-10.14-2.15-13.63-5.64c-3.49-3.49-5.64-8.31-5.64-13.63s2.15-10.14,5.64-13.63c3.49-3.49,8.31-5.64,13.63-5.64h0ZM457.74,60.23c-3.29-3.27-7.82-5.3-12.83-5.3s-9.54,2.03-12.81,5.3c-3.29,3.29-5.32,7.82-5.32,12.83s2.03,9.54,5.32,12.82c3.27,3.29,7.81,5.32,12.81,5.32s9.54-2.03,12.83-5.32,5.3-7.81,5.3-12.82-2.03-9.54-5.3-12.83h0Z" style="fill: #fff;"/>
    <path d="M435.81,73.39c.47,0,.85.39.85.87s-.38.85-.85.85-.85-.38-.85-.85.39-.87.85-.87h0ZM439.07,79.56c0-.32.27-.6.6-.6s.6.27.6.6-.27.6-.6.6-.6-.27-.6-.6h0ZM442.52,82.99c0-.32.26-.58.58-.58s.6.26.6.58-.26.6-.6.6-.58-.26-.58-.6h0ZM454.02,73.39c-.47,0-.85.39-.85.87s.38.85.85.85.85-.38.85-.85-.38-.87-.85-.87h0ZM450.76,79.56c0-.32-.26-.6-.6-.6s-.6.27-.6.6.27.6.6.6.6-.27.6-.6h0ZM447.32,85.02c0-.34-.27-.6-.6-.6s-.6.26-.6.6.27.6.6.6.6-.26.6-.6h0ZM449.57,73.24v4.99c-.5.22-.85.73-.85,1.33,0,.8.65,1.45,1.45,1.45s1.46-.65,1.46-1.45c0-.6-.35-1.11-.87-1.33v-4.99c2.11-.15,3.8-1.92,3.8-4.07h0c0-6.37-4.83-9.54-9.65-9.53-4.8-.01-9.65,3.15-9.65,9.53h0c0,2.15,1.69,3.92,3.8,4.07v4.99c-.5.22-.85.73-.85,1.33,0,.8.64,1.45,1.45,1.45s1.46-.65,1.46-1.45c0-.6-.35-1.11-.87-1.33v-4.99M446.13,73.24v10.46c-.51.22-.85.73-.85,1.33,0,.8.65,1.46,1.45,1.46s1.45-.66,1.45-1.46h0c0-.6-.35-1.11-.85-1.33v-10.46M442.52,73.24v8.43c-.51.23-.87.64-.87,1.33s.65,1.46,1.45,1.46,1.46-.76,1.46-1.46-.35-1.1-.87-1.33v-8.43M453.17,82.22c-.47,0-.85.38-.85.85s.38.85.85.85.85-.38.85-.85-.39-.85-.85-.85h0ZM436.66,82.22c.47,0,.87.38.87.85s-.39.85-.87.85-.85-.38-.85-.85.38-.85.85-.85h0Z" style="fill: #fff; fill-rule: evenodd;"/>
  </g>
  <g>
    <path d="M296.83,497.99c4.47,0,8.51,1.8,11.42,4.73,2.93,2.93,4.73,6.96,4.73,11.42s-1.8,8.49-4.73,11.42c-2.91,2.93-6.95,4.73-11.42,4.73s-8.5-1.8-11.42-4.73c-2.93-2.93-4.73-6.96-4.73-11.42s1.8-8.49,4.73-11.42c2.93-2.93,6.96-4.73,11.42-4.73h0ZM307.58,503.39c-2.76-2.74-6.56-4.45-10.75-4.45s-8,1.7-10.74,4.45c-2.76,2.76-4.46,6.56-4.46,10.75s1.7,8,4.46,10.74c2.74,2.76,6.54,4.46,10.74,4.46s8-1.7,10.75-4.46,4.45-6.54,4.45-10.74-1.7-8-4.45-10.75h0Z" style="fill: #fff;"/>
    <path d="M289.19,514.42c.4,0,.71.33.71.73s-.32.71-.71.71-.71-.32-.71-.71.33-.73.71-.73h0ZM291.93,519.59c0-.27.23-.5.5-.5s.5.23.5.5-.23.5-.5.5-.5-.23-.5-.5h0ZM294.82,522.47c0-.27.22-.49.49-.49s.5.22.5.49-.22.5-.5.5-.49-.22-.49-.5h0ZM304.46,514.42c-.4,0-.71.33-.71.73s.32.71.71.71.71-.32.71-.71-.32-.73-.71-.73h0ZM301.73,519.59c0-.27-.22-.5-.5-.5s-.5.23-.5.5.23.5.5.5.5-.23.5-.5h0ZM298.85,524.17c0-.28-.23-.5-.5-.5s-.5.22-.5.5.23.5.5.5.5-.22.5-.5h0ZM300.73,514.29v4.19c-.42.18-.71.61-.71,1.11,0,.67.54,1.21,1.21,1.21s1.22-.54,1.22-1.21c0-.5-.29-.93-.73-1.11v-4.19c1.77-.12,3.19-1.61,3.19-3.41h0c0-5.34-4.05-8-8.09-7.98-4.03-.01-8.09,2.64-8.09,7.98h0c0,1.8,1.42,3.29,3.19,3.41v4.19c-.42.18-.71.61-.71,1.11,0,.67.53,1.21,1.21,1.21s1.22-.54,1.22-1.21c0-.5-.29-.93-.73-1.11v-4.19M297.85,514.29v8.77c-.43.18-.71.61-.71,1.11,0,.67.54,1.22,1.21,1.22s1.21-.56,1.21-1.22h0c0-.5-.29-.93-.71-1.11v-8.77M294.82,514.29v7.07c-.43.19-.73.53-.73,1.11s.54,1.22,1.21,1.22,1.22-.64,1.22-1.22-.29-.92-.73-1.11v-7.07M303.75,521.82c-.4,0-.71.32-.71.71s.32.71.71.71.71-.32.71-.71-.33-.71-.71-.71h0ZM289.91,521.82c.4,0,.73.32.73.71s-.33.71-.73.71-.71-.32-.71-.71.32-.71.71-.71h0Z" style="fill: #fff; fill-rule: evenodd;"/>
  </g>
  <path d="M295.86,507.6c.31,0,.62,0,.94-.02,6.02-.2,10.61-2.14,13.65-5.77,5.02-6,3.89-14.37,3.84-14.72-.08-.58-.62-.99-1.2-.9s-.99.62-.9,1.2c.01.08,1.05,7.8-3.37,13.06-2.63,3.13-6.69,4.81-12.08,4.99-5.21.15-9.1-1.2-11.69-4.08-4.69-5.23-3.54-13.82-3.53-13.9.08-.58-.32-1.12-.91-1.21-.58-.08-1.12.32-1.21.91h0c-.05.39-1.31,9.64,4.04,15.62,2.87,3.19,7.04,4.81,12.42,4.81h0Z" style="fill: #5851bc;"/>
  <g>
    <g>
      <path d="M272.86,533.4h2.61c.64,0,1.23.13,1.78.4.55.27,1.02.63,1.42,1.08.4.46.72.99.95,1.61.23.62.35,1.28.35,1.99s-.12,1.37-.35,1.99c-.23.62-.55,1.16-.95,1.61-.4.46-.88.82-1.42,1.08-.55.27-1.14.4-1.78.4h-2.61v-10.17ZM275.47,542.41c.47,0,.91-.09,1.31-.28.4-.19.74-.46,1.03-.81.29-.35.52-.76.68-1.24.16-.48.25-1.01.25-1.59s-.08-1.11-.25-1.59c-.16-.48-.39-.89-.68-1.24-.29-.35-.63-.62-1.03-.81-.4-.19-.83-.28-1.31-.28h-1.38v7.84h1.38Z" style="fill: #fff;"/>
      <path d="M284.55,543.71c-.46,0-.87-.09-1.26-.28-.38-.19-.71-.45-.99-.77-.28-.32-.49-.71-.65-1.15-.15-.44-.23-.92-.23-1.43s.08-1.01.23-1.45c.15-.45.37-.83.64-1.15.27-.32.59-.58.97-.76.37-.18.78-.27,1.21-.27s.83.09,1.19.27c.36.18.66.42.92.73.25.31.45.67.59,1.08.14.41.21.85.21,1.33,0,.08,0,.15-.01.23,0,.07-.02.14-.03.21,0,.08-.02.15-.03.22h-4.71c.07.62.28,1.13.64,1.52.36.39.79.59,1.31.59.29,0,.55-.04.78-.12.23-.08.42-.18.58-.29.16-.11.28-.22.37-.32.09-.1.14-.17.16-.21l.73.65s-.1.15-.22.3c-.12.15-.28.31-.5.46-.22.16-.48.3-.8.43-.31.13-.68.19-1.1.19ZM286.22,539.5c-.04-.58-.22-1.05-.54-1.42-.32-.36-.72-.54-1.2-.54s-.88.17-1.21.52c-.33.34-.55.83-.65,1.45h3.6Z" style="fill: #fff;"/>
      <path d="M288.33,536.59h1.26l1.71,5.32h.03l1.73-5.32h1.22l-2.37,6.97h-1.22l-2.37-6.97Z" style="fill: #fff;"/>
      <path d="M295.67,536.59h1.16v.94h.03c.41-.73,1.05-1.09,1.93-1.09.42,0,.8.09,1.15.26.35.17.65.42.89.74.25.32.44.7.58,1.15.14.45.21.94.21,1.48s-.07,1.04-.21,1.48c-.14.45-.33.83-.58,1.15s-.54.57-.89.74-.73.26-1.15.26c-.88,0-1.53-.36-1.93-1.09h-.03v3.99h-1.16v-10.02ZM298.64,542.62c.27,0,.52-.07.74-.2.22-.13.41-.31.57-.53.16-.22.28-.49.37-.8.09-.31.13-.65.13-1.02s-.04-.69-.13-1.01c-.09-.31-.21-.58-.37-.81-.16-.22-.35-.4-.57-.53-.22-.13-.47-.2-.74-.2-.55,0-.99.23-1.32.7-.33.46-.49,1.08-.49,1.84s.16,1.38.49,1.84c.33.46.77.7,1.32.7Z" style="fill: #fff;"/>
      <path d="M303.36,536.59h1.16v.8h.04c.04-.07.11-.16.2-.27.1-.11.22-.22.38-.31.15-.1.34-.18.54-.25.21-.07.45-.11.72-.11h.22v1.23h-.36c-.51,0-.93.17-1.26.52-.32.34-.49.83-.49,1.45v3.92h-1.16v-6.97Z" style="fill: #fff;"/>
      <path d="M310.48,543.71c-.44,0-.84-.09-1.21-.27-.37-.18-.7-.43-.97-.76-.27-.32-.48-.71-.64-1.15-.15-.45-.23-.93-.23-1.45s.08-1.01.23-1.45c.15-.45.37-.83.64-1.15.27-.32.59-.58.97-.76.37-.18.78-.27,1.21-.27s.84.09,1.21.27c.37.18.69.43.97.76.27.32.48.71.64,1.15.15.45.23.93.23,1.45s-.08,1.01-.23,1.45c-.15.45-.37.83-.64,1.15-.27.32-.59.58-.97.76-.37.18-.78.27-1.21.27ZM310.48,542.62c.27,0,.52-.07.76-.2s.43-.31.6-.53c.16-.22.3-.49.39-.8.1-.31.15-.65.15-1.02s-.05-.69-.15-1.01c-.1-.31-.23-.58-.39-.81-.16-.22-.36-.4-.6-.53s-.48-.2-.76-.2-.52.07-.76.2-.43.31-.6.53c-.16.22-.3.49-.39.81-.1.31-.15.65-.15,1.01s.05.71.15,1.02c.1.31.23.58.39.8.16.22.36.4.6.53s.48.2.76.2Z" style="fill: #fff;"/>
      <path d="M317.67,543.71c-.42,0-.8-.09-1.15-.26s-.65-.42-.89-.74-.44-.7-.58-1.15c-.14-.45-.21-.94-.21-1.48s.07-1.04.21-1.48c.14-.45.33-.83.58-1.15.25-.32.54-.57.89-.74.35-.17.73-.26,1.15-.26.88,0,1.53.36,1.93,1.09h.03v-4.14h1.16v10.17h-1.16v-.94h-.03c-.41.73-1.05,1.09-1.93,1.09ZM317.82,542.62c.55,0,.99-.23,1.32-.7.33-.46.49-1.08.49-1.84s-.16-1.38-.49-1.84c-.33-.46-.77-.7-1.32-.7-.27,0-.52.07-.74.2-.22.13-.41.31-.57.53-.16.22-.28.49-.37.81-.09.31-.13.65-.13,1.01s.04.71.13,1.02c.09.31.21.58.37.8.16.22.35.4.57.53.22.13.47.2.74.2Z" style="fill: #fff;"/>
    </g>
    <g>
      <path d="M284.33,548.3c-.1-.17-.23-.26-.44-.26-.22,0-.46.15-.46.39,0,.21.21.33.38.39l.2.08c.39.15.68.37.68.82,0,.5-.38.85-.88.85-.44,0-.79-.33-.85-.77l.34-.07c0,.3.24.52.53.52s.5-.25.5-.53-.24-.42-.47-.52l-.19-.08c-.31-.13-.6-.31-.6-.69,0-.44.39-.71.81-.71.31,0,.56.15.7.41l-.27.16Z" style="fill: #fff;"/>
      <path d="M288.83,549.15c0,.81-.64,1.43-1.43,1.43s-1.43-.61-1.43-1.43.65-1.43,1.43-1.43,1.43.64,1.43,1.43ZM288.49,549.15c0-.6-.45-1.11-1.09-1.11s-1.09.5-1.09,1.11.5,1.11,1.09,1.11,1.09-.48,1.09-1.11Z" style="fill: #fff;"/>
      <path d="M290.59,550.2h.83v.31h-1.17v-2.74h.34v2.43Z" style="fill: #fff;"/>
      <path d="M293.03,547.78v1.62c0,.45.13.86.66.86s.66-.41.66-.86v-1.62h.34v1.73c0,.6-.37,1.06-1,1.06s-1-.46-1-1.06v-1.73h.34Z" style="fill: #fff;"/>
      <path d="M296.99,550.52h-.34v-2.43h-.65v-.31h1.64v.31h-.65v2.43Z" style="fill: #fff;"/>
      <path d="M299.33,550.52h-.34v-2.74h.34v2.74Z" style="fill: #fff;"/>
      <path d="M303.61,549.15c0,.81-.64,1.43-1.43,1.43s-1.43-.61-1.43-1.43.65-1.43,1.43-1.43,1.43.64,1.43,1.43ZM303.27,549.15c0-.6-.45-1.11-1.09-1.11s-1.09.5-1.09,1.11.5,1.11,1.09,1.11,1.09-.48,1.09-1.11Z" style="fill: #fff;"/>
      <path d="M305,547.65l2.06,2.15v-2.02h.34v2.85l-2.06-2.15v2.04h-.34v-2.87Z" style="fill: #fff;"/>
      <path d="M310.19,548.3c-.1-.17-.23-.26-.44-.26-.22,0-.46.15-.46.39,0,.21.21.33.38.39l.2.08c.39.15.68.37.68.82,0,.5-.38.85-.88.85-.44,0-.79-.33-.85-.77l.34-.07c0,.3.24.52.53.52s.5-.25.5-.53-.24-.42-.47-.52l-.19-.08c-.31-.13-.6-.31-.6-.69,0-.44.39-.71.81-.71.31,0,.56.15.7.41l-.27.16Z" style="fill: #fff;"/>
    </g>
  </g>
</svg>