<?xml version="1.0" encoding="UTF-8"?>
<svg id="Camada_1" data-name="Camada 1" xmlns="http://www.w3.org/2000/svg" viewBox="0 0 838.55 504.8" height="504.799" width="838.547">
  <path d="M96.85,361.74s109.09,226.23,465.67,109.39c356.59-116.83,170.52-336.35,10.1-257.05s-305.02-20.11-305.02-20.11c0,0-97.58-57.19-165.08,24.02,0,0-49.49,52.93-5.67,143.74h0Z" style="fill: #f5f5fe;"/>
  <path d="M305.95,134.27s-9.55,69.2,120.49,68.65c130.04-.55,185.97-97.49,142.71-121.56-37.89-21.08-85.65,14.84-138.56-1.34-67.95-20.79-126.28,12.33-124.64,54.26Z" style="fill: #f5f5fe;"/>
  <path d="M241.71,70.5h-127.62c-2.64,0-4.77-2.14-4.77-4.77,0-2.64,2.14-4.77,4.77-4.77h127.62c2.64,0,4.77,2.14,4.77,4.77,0,2.64-2.14,4.77-4.77,4.77Z" style="fill: #6f7de0;"/>
  <path d="M829.49,435.64h-38.84c-2.64,0-4.77-2.14-4.78-4.77h0c0-2.64,2.14-4.78,4.78-4.78h38.84c2.64,0,4.78,2.14,4.78,4.77h0c0,2.64-2.14,4.77-4.77,4.77h0Z" style="fill: #fe4777;"/>
  <rect x="432.98" y="6.33" width="14.77" height="14.31" rx="1.7" ry="1.7" style="fill: #fe4777;"/>
  <rect x="74.01" y="453.3" width="14.77" height="14.31" rx="1.7" ry="1.7" style="fill: #fe4777;"/>
  <path d="M837.61,312.85c-.08,5.56-4.64,10-10.2,9.93-5.56-.08-10-4.64-9.93-10.2.07-5.51,4.56-9.93,10.06-9.93,5.59.04,10.1,4.61,10.06,10.2Z" style="fill: none; stroke: #fff; stroke-linecap: round; stroke-linejoin: round; stroke-width: 1.87px;"/>
  <path d="M21.71,256.78c-.08,5.74-4.8,10.32-10.53,10.24s-10.32-4.8-10.24-10.53c.08-5.68,4.71-10.24,10.39-10.24,5.78.04,10.43,4.76,10.39,10.53h0Z" style="fill: none; stroke: #fff; stroke-linecap: round; stroke-linejoin: round; stroke-width: 1.87px;"/>
  <path d="M732.56,73.25h53.03" style="fill: none; stroke: #fff; stroke-linecap: round; stroke-linejoin: round; stroke-width: 1.87px;"/>
  <path d="M38.36,397.4h117" style="fill: none; stroke: #fff; stroke-linecap: round; stroke-linejoin: round; stroke-width: 1.87px;"/>
  <g>
    <rect x="649.28" y="160.45" width="133.07" height="39.84" rx="1.79" ry="1.79" style="fill: #6f7de0;"/>
    <path d="M667.48,174.12h89.08" style="fill: none; stroke: #fff; stroke-miterlimit: 10; stroke-width: .7px;"/>
    <path d="M667.48,184.8h31.25" style="fill: none; stroke: #fff; stroke-miterlimit: 10; stroke-width: .7px;"/>
    <path d="M663.84,195.95v14.95l18.8-14.95h-18.8Z" style="fill: #6f7de0;"/>
  </g>
  <path d="M64.4,128.01h92.91c2.73,0,4.95,2.21,4.95,4.95v87.39c0,2.73-2.21,4.95-4.95,4.95h-91.33c-3.6,0-6.53-2.92-6.53-6.53h0v-85.81c0-2.73,2.21-4.95,4.95-4.95h0Z" style="fill: #f94f4f;"/>
  <path d="M134.33,184.61l-6.1-6.1c-.99-1.14-2.41-1.82-3.92-1.85-1.49.04-2.9.67-3.92,1.74l-3.49,3.49-.65-.33c-.37-.16-.74-.34-1.09-.54-3.45-2.25-6.5-5.05-9.04-8.28-1.14-1.36-2.09-2.86-2.83-4.47.87-.76,1.63-1.63,2.4-2.4.33-.33.65-.65.98-.98,2.23-1.91,2.48-5.26.58-7.49-.18-.21-.37-.4-.58-.58l-3.05-3.05c-.35-.34-.68-.7-.98-1.09l-2.07-2.07c-1.03-1.07-2.44-1.7-3.92-1.74-1.49.01-2.91.64-3.92,1.74l-3.81,3.81c-1.43,1.44-2.31,3.32-2.51,5.34-.12,2.83.36,5.65,1.42,8.28,1.91,5.25,4.8,10.09,8.5,14.28,4.79,5.72,10.73,10.36,17.43,13.62,3.07,1.56,6.39,2.55,9.81,2.94h.76c2.49.04,4.87-.99,6.54-2.83l.11-.11c.6-.71,1.25-1.36,1.96-1.96l1.42-1.42c2.19-2.07,2.29-5.53.22-7.73-.07-.08-.15-.15-.23-.23h0ZM131.82,190.27l-1.31,1.31c-.76.65-1.42,1.42-2.18,2.18-1.01,1.08-2.44,1.68-3.92,1.64h-.54c-2.98-.31-5.86-1.2-8.5-2.62-6.25-3.06-11.78-7.41-16.24-12.75-3.35-3.93-6.04-8.39-7.95-13.19-1.01-2.1-1.46-4.43-1.31-6.76.07-1.21.62-2.35,1.53-3.16l3.7-3.7c.39-.44.94-.72,1.53-.76.59.03,1.15.3,1.53.76l1.96,1.96c.33.39.7.75,1.09,1.09l3.05,3.05c.42.41.69.95.76,1.53-.05.59-.32,1.13-.76,1.52-.33.33-.65.65-.98.98-.98.98-1.85,1.85-2.73,2.72l-.1.11c-.78.67-1.05,1.77-.65,2.72v.11c.92,2.12,2.14,4.1,3.6,5.88,2.78,3.55,6.13,6.6,9.92,9.04.45.3.92.55,1.42.76.37.16.74.34,1.09.55l.11.11c1.02.55,2.28.32,3.05-.54l3.81-3.81c.57-.81,1.7-1.01,2.51-.43.17.12.31.27.43.43l6.1,6.1c.87.74.98,2.04.25,2.91-.08.09-.16.17-.25.25h0Z" style="fill: #fff;"/>
  <path d="M547.06,0h85.28c2.51,0,4.54,2.03,4.54,4.54,0,0,0,0,0,0v80.21c0,2.51-2.03,4.54-4.54,4.54h-83.83c-3.31,0-5.99-2.68-5.99-5.99,0,0,0,0,0,0V4.54C542.52,2.03,544.56,0,547.06,0h0Z" style="fill: #fe4777;"/>
  <path d="M393.76,504.16c-.77-2.3-39.7-182.67-51.5-237.32-2.04-9.53-9.73-16.83-19.36-18.37-28.38-4.54-90.19-11.02-150.85,5.09-12.43,3.3-26.24,20.97-20.48,42.57l51.71,208.03h190.48Z" style="fill: #4c53bb;"/>
  <path d="M403.8,503.02c-.77-2.3-40.04-184.08-51.84-238.73-2.04-9.53-9.73-16.83-19.36-18.37-28.38-4.54-90.19-11.02-150.85,5.09-12.43,3.36-19.91,16.03-16.84,28.53l54.43,223.48h184.47Z" style="fill: #6f7de0;"/>
  <path d="M368.38,185.82s-39.75,3.34-52.07,33.62,0,37.8-18.49,48.98-59.1,41.92-19.39,102.61l207.26-20.01c-.79-.87,38.72-72.59-30.32-120.89l-87-44.31Z"/>
  <g>
    <path d="M575.01,279.76l-12.85,39.71,35.55,8.75,11.48-38.49-34.18-9.98Z" style="fill: #ffc4a7;"/>
    <path d="M573.04,290.01s25.35,16.87,32.47,11.95c12.44-8.59,24.67-42.44,24.67-42.44,0,0-48.08-22.24-47.67-21.48s-9.47,51.97-9.47,51.97Z" style="fill: #ffc4a7;"/>
    <path d="M573.04,290.01c-5.22-3.87-7.46-14.01-10.25-43.11-.43-2.72,1.44-5.28,4.16-5.7.01,0,.02,0,.03,0,1.86-.22,4.75.22,5.93,2.95l10.85,22.1-10.73,23.77Z" style="fill: #ffc4a7;"/>
    <path d="M576.21,259.04l11.6-41.74c.77-2.81,3.65-4.49,6.47-3.78,2.39.59,3.88,2.96,3.4,5.37l-6.01,31.27-15.46,8.88Z" style="fill: #ffc4a7;"/>
    <path d="M594.28,244.65l13.77-29.4c1.17-2.59,4.17-3.8,6.81-2.76,2.21.91,3.36,3.37,2.62,5.65l-11.13,34.32-12.07-7.81Z" style="fill: #ffc4a7;"/>
    <path d="M606.06,254.47l16.8-28.65c1.54-2.66,4.88-3.66,7.63-2.3,2.48,1.3,3.44,4.37,2.14,6.86,0,0,0,.02-.01.03l-13.71,27.2-12.85-3.13Z" style="fill: #ffc4a7;"/>
    <path d="M630.18,259.52l12.81-17.37c1.12-1.98.42-4.5-1.57-5.62-.01,0-.03-.01-.04-.02-2-1.04-4.45-.51-5.86,1.25l-16.62,19.84,11.28,1.92Z" style="fill: #ffc4a7;"/>
  </g>
  <path d="M578.76,256.02s17.37-.55,17.47,22.55" style="fill: none; stroke: #e5967a; stroke-linecap: round; stroke-linejoin: round; stroke-width: 1.06px;"/>
  <path d="M444.69,303.44c25.27,15.06,80.03,72.42,80.03,72.42l35.15-77.16,59.14,10.89s-39.15,101.61-58.65,133.69c-10.16,16.71-29.51,26.98-52.01,15.18l-63.04-38.44-.62-116.58Z" style="fill: #fe4777;"/>
  <path d="M391.24,288.03s-79.6,5.94-93.72,58.68-11.88,156.73-11.88,156.73h190.89l-5.94-159.7s-4.21-52.73-79.35-55.7h0Z" style="fill: #fe4777;"/>
  <path d="M474.08,437.56l-5.08-71.1" style="fill: none; stroke: #e0225d; stroke-miterlimit: 10;"/>
  <path d="M500.12,503.74l76.99-142.11c1.21-2.24,3.55-3.63,6.1-3.64h181.94c2.86,0,5.17,2.32,5.17,5.17,0,.81-.19,1.61-.56,2.33l-69.88,138.24h-199.76Z" style="fill: #f2f2f2;"/>
  <path d="M380.43,486.4h143.99v17.33h-143.99v-17.33Z" style="fill: #fff;"/>
  <path d="M661.88,433.91c0,8.42-6.83,15.25-15.25,15.25-8.42,0-15.25-6.83-15.25-15.25,0-8.42,6.83-15.25,15.25-15.25h0c8.42,0,15.25,6.83,15.25,15.25Z" style="fill: #989898;"/>
  <path d="M500.12,503.74l76.56-141.32c1.48-2.73,4.33-4.43,7.44-4.43h95.53" style="fill: none; stroke: #0c0b0c; stroke-linecap: round; stroke-linejoin: round; stroke-width: 1.28px;"/>
  <path d="M417.43,211.83c-.49,14.1,10.69,25.94,28.57,26.56,12.65.44,16.74-10.86,17.23-24.96s-9.36-25.89-22.01-26.33-23.3,10.63-23.8,24.73h0Z" style="fill: #4040eb;"/>
  <path d="M424,212.06c-.49,14.1,9.36,25.89,22.01,26.33s23.3-10.63,23.79-24.73-9.36-25.89-22.01-26.33-23.3,10.63-23.79,24.73h0Z" style="fill: #2a3596;"/>
  <path d="M400.26,145.33c2.28-3.99-.65-11.45-.65-11.45-22.48,0-41.87,7.2-53.04,27.73-16.43,30.21-4.5,76.91,34.17,91.12,37.11,13.64,17.35-103.6,17.35-103.6l2.17-3.81Z"/>
  <path d="M421.45,260.18l-2.48,36.39c-.85,13.72-9.76,20.54-23.26,19.6-11.53-.8-21.94-7.5-22.58-19.03l3.27-58.62,45.05,21.66Z" style="fill: #ffc4a7;"/>
  <path d="M420.09,281.75s-26.71-4.39-43.76-37.3l45.48,11.42-1.72,25.88Z" style="fill: #e5967a;"/>
  <path d="M409.79,264.92c23.07.87,41.93-16.54,42.62-35.38l1.36-44.48c.86-23.63-17.18-43.68-40.76-45.31-17.74-1.23-49.94,25.11-51.01,40.37l-.7,35.78c-.55,27.67,25.89,48.15,48.49,49.01h0Z" style="fill: #ffc4a7;"/>
  <path d="M399.51,133.93c.11-.01.21-.04.33-.05l-.33.05Z" style="fill: #f7de9e;"/>
  <path d="M339.74,210.82c-.69,9.9,6.77,18.49,16.67,19.18s18.49-6.77,19.18-16.67-6.77-18.49-16.67-19.18c0,0,0,0,0,0-9.9-.69-18.48,6.77-19.17,16.67,0,0,0,0,0,0Z" style="fill: #ffc4a7;"/>
  <path d="M363.56,217.83s.9-12.99-11.67-11.81" style="fill: none; stroke: #20181f; stroke-linecap: round; stroke-linejoin: round; stroke-width: 1.28px;"/>
  <path d="M427.3,222.65l1.42,11.74-6.08.22" style="fill: none; stroke: #0c0b0c; stroke-linecap: round; stroke-linejoin: round; stroke-width: 1.28px;"/>
  <path d="M402.1,198.7s12.11-1.64,11.93,2.71c0,0-.22,2.95-10.78,4.2s-13.24.74-14.01-1.97,7.2-4.55,12.86-4.94h0Z"/>
  <path d="M441.09,198.99s-9.6-1.44-10.14,2.61c0,0-.29,2.74,8.11,3.83s11.06.26,11.71-1.93c.74-2.49-5.14-4.19-9.68-4.5h0Z"/>
  <path d="M399.91,216.48c-.07,2.15,1.61,3.96,3.76,4.03s3.96-1.61,4.03-3.76-1.61-3.96-3.76-4.03c0,0,0,0-.01,0-2.15-.07-3.95,1.61-4.02,3.76h0Z"/>
  <path d="M435.83,216.48c-.07,2.15,1.61,3.95,3.76,4.02,2.15.07,3.95-1.61,4.02-3.76s-1.61-3.95-3.76-4.02c0,0,0,0,0,0-2.15-.07-3.95,1.61-4.02,3.76,0,0,0,0,0,0Z"/>
  <path d="M404.95,241.37h24.93s-1.16,8.6-14.22,7.96c-4.92-.06-9.24-3.27-10.71-7.96h0Z" style="fill: #f7f7f7;"/>
  <path d="M358.91,194.15s36.26,12.82,61.76-35.31c0,0,27.74,5.92,33.1,28.58,0,0,14.46-55.37-55.81-55.44l-40.29,24.38,1.24,37.79Z"/>
  <path d="M380.64,311.09l33.9,21.54s3.68-23.63,4.42-35.98l-38.33,14.44Z" style="fill: #ffc4a7;"/>
  <path d="M428.56,136.74l.08,2.36s-29.04-2.15-45.16,12.83c-17.97,16.7-22.9,42.7-22.9,42.7l-6.26-.59,7.86-41.22,14.67-10.64,21.81-8.22,14.57-1.91,15.31,4.7Z" style="fill: #2a3596;"/>
  <path d="M375.02,212.75c.49,14.1-10.69,25.94-28.57,26.56-12.65.44-16.74-10.86-17.23-24.96s9.36-25.89,22.01-26.33,23.3,10.63,23.8,24.73h0Z" style="fill: #2a3596;"/>
  <ellipse cx="345.54" cy="213.78" rx="22.91" ry="25.54" transform="translate(-7.27 12.23) rotate(-2.01)" style="fill: #4c53bb;"/>
  <path d="M345.66,191.41c.57-10.76,2.91-21.35,6.94-31.35,8.32-20.04,27.69-31.92,49.4-31.95,1.66,0,3.4.03,5.22.12,6.26.29,12.83,1.65,17.87,5.38,1.27.92,2.43,1.97,3.48,3.13,0,0-27.89-3.85-43.89,8.55-18.03,13.97-26.01,35.68-27.78,50.77l-11.24-4.65Z" style="fill: #4c53bb;"/>
  <path d="M364.75,231.85c5.67,6.31,14.13,9.37,22.52,8.15" style="fill: none; stroke: #0c0b0c; stroke-linecap: round; stroke-linejoin: round; stroke-width: 1.28px;"/>
  <path d="M390.76,239.33c0,1.44-1.16,2.6-2.6,2.6s-2.6-1.16-2.6-2.6c0-1.44,1.16-2.6,2.6-2.6s2.6,1.16,2.6,2.6h0Z" style="fill: #0c0b0c;"/>
  <path d="M415.13,477.86l-36.88-5.08,1.03,30.94h28.53s7.32-25.87,7.32-25.87Z" style="fill: #ffc4a7;"/>
  <path d="M410.83,477.44c-1.13-.47,79.28-34.3,73.3,26.23h-80.71l7.41-26.23Z" style="fill: #ffc4a7;"/>
  <path d="M269.28,449.39l118.48,3.57-2.23,51.21-123.18-.76c-14.91-2-25.37-15.71-23.37-30.61.29-2.18.85-4.33,1.66-6.38,4.55-11.53,16.33-18.54,28.64-17.03h0Z" style="fill: #fe4777;"/>
  <path d="M385.57,473.35l2.19-20.4-68.07-2.24,33.25-67.47" style="fill: none; stroke: #e0225d; stroke-miterlimit: 10;"/>
  <path d="M321.81,450.71l-36-.44" style="fill: none; stroke: #e0225d; stroke-miterlimit: 10;"/>
  <path d="M361.3,353.47s-30.17,75.91-73.44,137.09c-4.85,6.86-18.34,10.27-26.74,9.9-18.94-.82-26.97-21.22-19.81-37.83,0,0,34.82-109.42,74.21-145.03.99-.9,45.78,35.87,45.78,35.87h0Z" style="fill: #fe4777;"/>
  <path d="M789.27,504.16H22.32" style="fill: none; stroke: #0c0b0c; stroke-linecap: round; stroke-linejoin: round; stroke-width: 1.28px;"/>
  <g>
    <path d="M589.7,6.16c10.65,0,20.27,4.3,27.22,11.27,6.97,6.97,11.27,16.59,11.27,27.22s-4.3,20.24-11.27,27.22c-6.95,6.97-16.57,11.27-27.22,11.27s-20.24-4.3-27.22-11.27c-6.97-6.97-11.27-16.59-11.27-27.22s4.3-20.24,11.27-27.22c6.97-6.97,16.59-11.27,27.22-11.27h0ZM615.32,19.02c-6.57-6.54-15.62-10.59-25.62-10.59s-19.05,4.05-25.59,10.59c-6.57,6.57-10.62,15.62-10.62,25.62s4.05,19.05,10.62,25.59c6.54,6.57,15.59,10.62,25.59,10.62s19.05-4.05,25.62-10.62c6.54-6.54,10.59-15.59,10.59-25.59s-4.05-19.05-10.59-25.62h0Z" style="fill: #fff;"/>
    <path d="M571.51,45.29c.95,0,1.7.78,1.7,1.73s-.76,1.7-1.7,1.7-1.7-.76-1.7-1.7.78-1.73,1.7-1.73h0ZM578.03,57.62c0-.65.54-1.19,1.19-1.19s1.19.54,1.19,1.19-.54,1.19-1.19,1.19-1.19-.54-1.19-1.19h0ZM584.92,64.48c0-.65.51-1.16,1.16-1.16s1.19.51,1.19,1.16-.51,1.19-1.19,1.19-1.16-.51-1.16-1.19h0ZM607.89,45.29c-.95,0-1.7.78-1.7,1.73s.76,1.7,1.7,1.7,1.7-.76,1.7-1.7-.76-1.73-1.7-1.73h0ZM601.38,57.62c0-.65-.51-1.19-1.19-1.19s-1.19.54-1.19,1.19.54,1.19,1.19,1.19,1.19-.54,1.19-1.19h0ZM594.51,68.54c0-.68-.54-1.19-1.19-1.19s-1.19.51-1.19,1.19.54,1.19,1.19,1.19,1.19-.51,1.19-1.19h0ZM599,45v9.97c-1,.43-1.7,1.46-1.7,2.65,0,1.59,1.3,2.89,2.89,2.89s2.92-1.3,2.92-2.89c0-1.19-.7-2.22-1.73-2.65v-9.97c4.22-.3,7.59-3.84,7.59-8.13h0c0-12.73-9.65-19.05-19.27-19.03-9.59-.03-19.27,6.3-19.27,19.03h0c0,4.3,3.38,7.84,7.59,8.13v9.97c-1,.43-1.7,1.46-1.7,2.65,0,1.59,1.27,2.89,2.89,2.89s2.92-1.3,2.92-2.89c0-1.19-.7-2.22-1.73-2.65v-9.97M592.13,45v20.89c-1.03.43-1.7,1.46-1.7,2.65,0,1.59,1.3,2.92,2.89,2.92s2.89-1.32,2.89-2.92h0c0-1.19-.7-2.22-1.7-2.65v-20.89M584.92,45v16.84c-1.03.46-1.73,1.27-1.73,2.65s1.3,2.92,2.89,2.92,2.92-1.51,2.92-2.92-.7-2.19-1.73-2.65v-16.84M606.19,62.94c-.95,0-1.7.76-1.7,1.7s.76,1.7,1.7,1.7,1.7-.76,1.7-1.7-.78-1.7-1.7-1.7h0ZM573.22,62.94c.95,0,1.73.76,1.73,1.7s-.78,1.7-1.73,1.7-1.7-.76-1.7-1.7.76-1.7,1.7-1.7h0Z" style="fill: #fff; fill-rule: evenodd;"/>
  </g>
  <path d="M639.06,434.18c.39,0,.71.33.71.72s-.31.71-.71.71-.71-.31-.71-.71.33-.72.71-.72h0ZM641.77,439.3c0-.27.22-.49.49-.49s.49.22.49.49-.22.49-.49.49-.49-.22-.49-.49h0ZM644.64,442.16c0-.27.21-.48.48-.48s.49.21.49.48-.21.49-.49.49-.48-.21-.48-.49h0ZM654.19,434.18c-.39,0-.71.33-.71.72s.31.71.71.71.71-.31.71-.71-.31-.72-.71-.72h0ZM651.48,439.3c0-.27-.21-.49-.49-.49s-.49.22-.49.49.22.49.49.49.49-.22.49-.49h0ZM648.63,443.84c0-.28-.22-.49-.49-.49s-.49.21-.49.49.22.49.49.49.49-.21.49-.49h0ZM650.49,434.05v4.15c-.42.18-.71.61-.71,1.1,0,.66.54,1.2,1.2,1.2s1.21-.54,1.21-1.2c0-.49-.29-.92-.72-1.1v-4.15c1.75-.12,3.16-1.6,3.16-3.38h0c0-5.29-4.01-7.92-8.01-7.91-3.99-.01-8.01,2.62-8.01,7.91h0c0,1.79,1.41,3.26,3.16,3.38v4.15c-.42.18-.71.61-.71,1.1,0,.66.53,1.2,1.2,1.2s1.21-.54,1.21-1.2c0-.49-.29-.92-.72-1.1v-4.15M647.64,434.05v8.69c-.43.18-.71.61-.71,1.1,0,.66.54,1.21,1.2,1.21s1.2-.55,1.2-1.21h0c0-.49-.29-.92-.71-1.1v-8.69M644.64,434.05v7c-.43.19-.72.53-.72,1.1s.54,1.21,1.2,1.21,1.21-.63,1.21-1.21-.29-.91-.72-1.1v-7M653.48,441.52c-.39,0-.71.31-.71.71s.31.71.71.71.71-.31.71-.71-.33-.71-.71-.71h0ZM639.77,441.52c.39,0,.72.31.72.71s-.33.71-.72.71-.71-.31-.71-.71.31-.71.71-.71h0Z" style="fill: #fff; fill-rule: evenodd;"/>
</svg>